<svg width="24" height="24" viewBox="0 0 24 24" fill="none" xmlns="http://www.w3.org/2000/svg">
<g clip-path="url(#clip0_105_1607)">
<path d="M14.1986 3.27909C15.1041 3.27909 15.8382 2.54504 15.8382 1.63955C15.8382 0.73405 15.1041 0 14.1986 0C13.2931 0 12.5591 0.73405 12.5591 1.63955C12.5591 2.54504 13.2931 3.27909 14.1986 3.27909Z" fill="#DDDE70"/>
<path d="M18.8832 6.60502C19.7887 6.60502 20.5227 5.87097 20.5227 4.96547C20.5227 4.05998 19.7887 3.32593 18.8832 3.32593C17.9777 3.32593 17.2437 4.05998 17.2437 4.96547C17.2437 5.87097 17.9777 6.60502 18.8832 6.60502Z" fill="#DDDE70"/>
<path d="M9.22521 11.9913L5.12981 10.749C4.3425 10.5102 2.84695 10.3128 1.59027 10.194L3.21782 16.1362C3.54549 17.3416 4.31472 18.3391 5.32117 18.9744L4.59672 20.0394C4.37843 20.3602 4.46163 20.7973 4.78246 21.0155C4.89873 21.0949 5.03625 21.1373 5.17703 21.1373C5.40179 21.1373 5.6227 21.0296 5.75865 20.8298L6.62803 19.5519C7.0471 19.6677 7.47987 19.7265 7.91465 19.7267H16.1431C16.5689 19.7267 16.9847 19.6717 17.3827 19.5677L18.2413 20.8298C18.3773 21.0297 18.5981 21.1373 18.8229 21.1373C18.959 21.1373 19.0965 21.0979 19.2175 21.0155C19.5384 20.7973 19.6215 20.3602 19.4032 20.0394L18.6996 19.005C19.5576 18.4761 20.2479 17.6807 20.649 16.6997L22.2829 12.6731H13.8229C12.2651 12.6733 10.7159 12.4436 9.22521 11.9913ZM22.8217 8.92558H13.8229C12.3573 8.9258 10.8996 8.70966 9.49714 8.28415L5.40169 7.04184C4.36822 6.72836 2.36188 6.51798 1.28625 6.41652C1.24958 6.41305 1.21276 6.41131 1.17593 6.41132C0.880389 6.41132 0.597919 6.52023 0.380609 6.718C0.138706 6.93817 0 7.25142 0 7.57736C0 8.18104 0.473079 8.69122 1.07699 8.73886C2.27021 8.83302 4.39267 9.05689 5.53768 9.40419L9.63313 10.6465C10.9915 11.0587 12.4033 11.268 13.8229 11.2678H22.8217C23.4715 11.2678 24 10.7424 24 10.0967C24 9.45094 23.4714 8.92558 22.8217 8.92558Z" fill="#DDDE70"/>
</g>
<defs>
<clipPath id="clip0_105_1607">
<rect width="24" height="24" fill="white"/>
</clipPath>
</defs>
</svg>
