<svg width="23" height="22" viewBox="0 0 23 22" fill="none" xmlns="http://www.w3.org/2000/svg">
<path d="M16.6 0.25H12.4C8.49 0.25 6.75 1.99 6.75 5.9V7C6.75 7.41 7.09 7.75 7.5 7.75H10.6C13.7 7.75 14.75 8.8 14.75 11.9V15C14.75 15.41 15.09 15.75 15.5 15.75H16.6C20.51 15.75 22.25 14.01 22.25 10.1V5.9C22.25 1.99 20.51 0.25 16.6 0.25ZM8.25 6.25V5.9C8.25 2.8 9.3 1.75 12.4 1.75H16.6C19.7 1.75 20.75 2.8 20.75 5.9V10.1C20.75 13.2 19.7 14.25 16.6 14.25H16.25V11.9C16.25 7.99 14.51 6.25 10.6 6.25H8.25Z" fill="#DDDE70"/>
<path d="M10.6 6.25H6.4C2.49 6.25 0.75 7.99 0.75 11.9V16.1C0.75 20.01 2.49 21.75 6.4 21.75H10.6C14.51 21.75 16.25 20.01 16.25 16.1V11.9C16.25 7.99 14.51 6.25 10.6 6.25ZM6.4 20.25C3.3 20.25 2.25 19.2 2.25 16.1V11.9C2.25 8.8 3.3 7.75 6.4 7.75H10.6C13.7 7.75 14.75 8.8 14.75 11.9V16.1C14.75 19.2 13.7 20.25 10.6 20.25H6.4Z" fill="#DDDE70"/>
<path d="M7.52953 16.7C7.33953 16.7 7.14953 16.63 6.99953 16.48L5.04953 14.53C4.75953 14.24 4.75953 13.76 5.04953 13.47C5.33953 13.18 5.81953 13.18 6.10953 13.47L7.52953 14.89L10.8895 11.53C11.1795 11.24 11.6595 11.24 11.9495 11.53C12.2395 11.82 12.2395 12.3 11.9495 12.59L8.04953 16.48C7.90953 16.62 7.71953 16.7 7.52953 16.7Z" fill="#DDDE70"/>
</svg>
