<svg width="24" height="24" viewBox="0 0 24 24" fill="none" xmlns="http://www.w3.org/2000/svg">
<path d="M15.8786 14.6171H18.134C18.4674 14.6171 18.734 14.8696 18.734 15.1838V17.5056C18.734 17.8198 18.4674 18.0723 18.134 18.0723H15.8786C15.5466 18.0723 15.2786 17.8198 15.2786 17.5056V15.1838C15.2786 14.8699 15.5466 14.6171 15.8786 14.6171ZM10.9023 14.6171H13.1578C13.4911 14.6171 13.7578 14.8696 13.7578 15.1838V17.5056C13.7578 17.8198 13.4911 18.0723 13.1578 18.0723H10.9023C10.5706 18.0723 10.3023 17.8198 10.3023 17.5056V15.1838C10.3023 14.8699 10.5706 14.6171 10.9023 14.6171ZM5.92605 14.6171H8.18178C8.51351 14.6171 8.78151 14.8696 8.78151 15.1838V17.5056C8.78151 17.8198 8.51351 18.0723 8.18178 18.0723H5.92605C5.59271 18.0723 5.32605 17.8198 5.32605 17.5056V15.1838C5.32605 14.8699 5.59271 14.6171 5.92605 14.6171ZM15.8786 9.64055H18.134C18.4674 9.64055 18.734 9.89309 18.734 10.2072V12.5296C18.734 12.8432 18.4674 13.0963 18.134 13.0963H15.8786C15.5466 13.0963 15.2786 12.8432 15.2786 12.5296V10.2072C15.2786 9.89335 15.5466 9.64055 15.8786 9.64055ZM10.9023 9.64055H13.1578C13.4911 9.64055 13.7578 9.89309 13.7578 10.2072V12.5296C13.7578 12.8432 13.4911 13.0963 13.1578 13.0963H10.9023C10.5706 13.0963 10.3023 12.8432 10.3023 12.5296V10.2072C10.3023 9.89335 10.5706 9.64055 10.9023 9.64055ZM6.80791 2.26135C6.69028 2.26118 6.57377 2.28421 6.46505 2.32913C6.35633 2.37405 6.25753 2.43997 6.17433 2.52313C6.09113 2.60628 6.02514 2.70503 5.98016 2.81373C5.93517 2.92242 5.91207 3.03892 5.91218 3.15655V3.81949H4.03991C2.83031 3.81949 1.85645 4.82375 1.85645 6.07095V19.5086C1.85645 20.7555 2.83005 21.7595 4.03991 21.7595H20.0202C21.2298 21.7595 22.2034 20.7552 22.2034 19.5086V6.07149C22.2034 4.82402 21.23 3.82002 20.0202 3.82002H18.1479V4.52269C18.1479 5.77175 17.0479 6.06429 16.3506 6.06429V3.15682C16.3506 2.66162 15.9506 2.26162 15.4548 2.26162H14.341C14.2233 2.26144 14.1068 2.28448 13.9981 2.3294C13.8894 2.37431 13.7906 2.44024 13.7074 2.52339C13.6242 2.60655 13.5582 2.7053 13.5132 2.81399C13.4682 2.92269 13.4451 3.03919 13.4452 3.15682V3.81975H10.6148V4.52242C10.6148 5.77149 9.51485 6.06402 8.81778 6.06402V3.15682C8.81778 2.66162 8.41778 2.26162 7.92205 2.26162H6.80791V2.26135Z" fill="#DDDE70"/>
</svg>
