<svg width="16" height="16" viewBox="0 0 16 16" fill="none" xmlns="http://www.w3.org/2000/svg">
<path d="M11.8392 9.19383C11.8081 9.17887 10.6416 8.60448 10.4344 8.52988C10.3497 8.4995 10.2591 8.46983 10.1627 8.46983C10.0052 8.46983 9.87285 8.54833 9.76978 8.70251C9.65326 8.8757 9.30054 9.28801 9.19155 9.41118C9.17732 9.42744 9.15789 9.44687 9.14625 9.44687C9.13581 9.44687 8.95529 9.37253 8.90064 9.34879C7.64937 8.80526 6.6996 7.4982 6.56937 7.27778C6.55077 7.24609 6.54999 7.2317 6.54984 7.2317C6.55441 7.21492 6.59649 7.17274 6.6182 7.15098C6.68173 7.08812 6.75056 7.00526 6.81716 6.92511C6.84816 6.88751 6.87954 6.85023 6.91129 6.81326C7.00791 6.70085 7.05093 6.61357 7.1008 6.51248L7.12693 6.45996C7.24869 6.21804 7.14469 6.01388 7.11108 5.94796C7.0835 5.89279 6.59098 4.70412 6.53862 4.57924C6.41269 4.27788 6.2463 4.13757 6.01508 4.13757C5.99363 4.13757 6.01508 4.13757 5.92511 4.14137C5.81555 4.14599 5.21893 4.22453 4.95514 4.39082C4.6754 4.56718 4.20215 5.12937 4.20215 6.11804C4.20215 7.00786 4.76682 7.84802 5.00927 8.16755C5.01529 8.1756 5.02636 8.19196 5.04241 8.21544C5.97088 9.57139 7.12833 10.5763 8.30168 11.045C9.43129 11.4962 9.9662 11.5484 10.2703 11.5484H10.2704C10.3981 11.5484 10.5004 11.5384 10.5907 11.5295L10.6479 11.524C11.0381 11.4894 11.8957 11.0451 12.0908 10.503C12.2444 10.076 12.285 9.60952 12.1827 9.44022C12.1127 9.32511 11.992 9.26718 11.8392 9.19383Z" fill="white"/>
<path d="M8.14206 0C3.80876 0 0.283361 3.49891 0.283361 7.79964C0.283361 9.19065 0.655621 10.5523 1.36082 11.7439L0.0110496 15.7255C-0.00132148 15.7619 -0.00334937 15.801 0.00519169 15.8385C0.0137328 15.876 0.0325076 15.9103 0.0594263 15.9378C0.0863449 15.9652 0.120351 15.9847 0.157659 15.9939C0.194967 16.0032 0.234112 16.0019 0.270738 15.9902L4.42243 14.671C5.55853 15.278 6.84258 15.5984 8.14211 15.5984C12.475 15.5984 16 12.0999 16 7.79964C16 3.49891 12.475 0 8.14206 0ZM8.14206 13.9737C6.91926 13.9737 5.73489 13.6206 4.71682 12.9526C4.69099 12.9356 4.6617 12.9246 4.63109 12.9204C4.60048 12.9162 4.56932 12.9189 4.53988 12.9283L2.46014 13.5894L3.13152 11.6087C3.14222 11.5771 3.14516 11.5434 3.14008 11.5104C3.13501 11.4774 3.12208 11.4461 3.10237 11.4192C2.3271 10.3599 1.91728 9.10831 1.91728 7.79964C1.91728 4.39481 4.7097 1.62473 8.14201 1.62473C11.5739 1.62473 14.366 4.39481 14.366 7.79964C14.3661 11.2041 11.574 13.9737 8.14206 13.9737Z" fill="white"/>
</svg>
