<svg width="70" height="68" viewBox="0 0 70 68" fill="none" xmlns="http://www.w3.org/2000/svg">
<path d="M70 34.0117C70 36.3136 69.7653 38.5921 69.296 40.847C68.8267 43.1019 68.0992 45.2864 67.2075 47.3769C66.2923 49.4674 65.1425 51.4639 63.8284 53.3195C62.5142 55.1751 61.0124 56.8898 59.3698 58.4401C56.061 61.5406 52.1891 63.9599 48.0355 65.5572C45.947 66.3793 43.8116 66.99 41.6058 67.3893C39.4234 67.7886 37.1941 68 34.9648 68C32.7355 68 30.5297 67.7886 28.3238 67.3893C26.1415 66.99 23.9826 66.3793 21.9175 65.5572C17.764 63.9364 13.8921 61.5171 10.6068 58.4166C8.96413 56.8663 7.46229 55.1516 6.14817 53.296C4.83406 51.4404 3.70768 49.4674 2.79249 47.3534C1.8773 45.2629 1.17332 43.0784 0.703989 40.8235C0.234663 38.5921 0 36.2902 0 34.0117C0 31.7098 0.234663 29.4314 0.703989 27.1765C1.17332 24.9451 1.8773 22.7371 2.79249 20.6466C3.70768 18.5561 4.85753 16.5596 6.14817 14.704C7.46229 12.8484 8.96413 11.1337 10.6068 9.58342C13.8921 6.4829 17.764 4.06356 21.941 2.44283C24.006 1.62073 26.1649 1.01002 28.3708 0.610708C30.5062 0.211399 32.7355 0 34.9648 0C37.1941 0 39.3999 0.211399 41.6058 0.610708C43.7881 1.01002 45.947 1.62073 48.0355 2.44283C52.1891 4.06356 56.0845 6.4829 59.3698 9.58342C61.0124 11.1337 62.5142 12.8484 63.8284 14.704C65.1425 16.5596 66.2923 18.5561 67.2075 20.6466C68.1227 22.7371 68.8267 24.9216 69.296 27.1765C69.7653 29.4314 70 31.7098 70 34.0117ZM65.1659 45.991C65.8465 44.1589 66.3627 42.2563 66.7147 40.3302V40.1423C65.0955 40.2128 63.4529 40.2363 61.8103 40.2363C60.7777 40.2363 59.7452 40.2363 58.7127 40.2128L57.1639 40.1658H56.9762C56.9762 40.1658 56.8354 40.1658 56.7885 40.1658C56.6711 40.1658 56.6007 40.1658 56.5069 40.1893C56.4365 40.1893 56.3661 40.2363 56.3895 40.2363C56.3895 40.2363 56.4365 40.2363 56.4599 40.1658C56.5069 40.1188 56.5303 40.0249 56.5303 39.9544V39.8839C56.5303 39.8839 56.5303 39.8839 56.5303 39.8604C56.5303 39.8604 56.5303 39.8605 56.5303 39.8839C56.5303 39.9309 56.6242 39.9779 56.6711 40.0484C56.7415 40.1188 56.8119 40.1658 56.9058 40.2363L57.2343 40.4477C57.6567 40.7295 58.1026 41.0114 58.525 41.3168C59.3698 41.904 60.238 42.4677 61.0828 43.0784C62.4673 44.0415 63.8284 45.0045 65.1659 46.0145V45.991ZM64.3915 47.8936C64.5793 47.4943 64.7435 47.095 64.9078 46.6957C63.3825 45.8736 61.9041 44.981 60.4257 44.0884C59.534 43.5482 58.6658 43.0079 57.774 42.4442C57.3282 42.1623 56.9058 41.8805 56.4599 41.5986L56.1314 41.3872C55.9906 41.2933 55.8733 41.1993 55.7325 41.0819C55.6152 40.9644 55.4744 40.847 55.357 40.6591C55.2866 40.5886 55.2397 40.4712 55.1928 40.3537C55.1693 40.2832 55.1458 40.2128 55.1224 40.1423C55.1224 40.0718 55.1224 39.9544 55.1224 39.8839C55.1224 39.79 55.1458 39.6725 55.1693 39.5786C55.1928 39.4846 55.2632 39.3907 55.3101 39.3202C55.4274 39.1793 55.5682 39.0618 55.6621 38.9914C55.8967 38.8504 56.0845 38.8269 56.2722 38.78C56.4365 38.7565 56.6007 38.733 56.765 38.733C56.8589 38.733 56.9058 38.733 56.9762 38.733H57.1639L58.7127 38.8035C59.7452 38.8504 60.7777 38.8974 61.8337 38.9679C63.5233 39.0618 65.2129 39.2028 66.879 39.3672C66.9494 38.8504 67.0198 38.3337 67.0902 37.8169C62.655 36.713 53.9256 35.2567 52.7288 38.6155C52.3768 39.6021 52.4472 40.5651 52.9635 41.5047C54.8408 44.934 61.8103 47.142 64.3681 47.8466L64.3915 47.8936ZM48.5987 64.3592C50.2648 63.5606 51.8371 62.6211 53.3389 61.5406C55.0989 60.2722 56.7415 58.8394 58.1964 57.2656C60.59 54.7054 62.5612 51.7693 64.0396 48.6218C61.294 47.8701 54.2776 45.6152 52.2595 41.9275C51.6728 40.847 51.5555 39.7195 51.884 38.5686C51.6259 38.4511 51.3208 38.3572 51.0158 38.2867C50.5934 38.1927 50.171 38.0988 49.7251 38.0518C48.8569 37.9344 47.9886 37.9109 47.1203 37.9344C45.3838 38.0048 43.6473 38.3572 42.122 39.1323C41.3711 39.5081 40.6671 40.0014 40.0805 40.5886C39.4938 41.1758 39.001 41.857 38.6255 42.6086C38.2501 43.3368 38.0154 44.1589 37.8277 44.981L37.7104 45.6152C37.6634 45.8266 37.6634 46.038 37.64 46.2494C37.64 46.4608 37.593 46.6722 37.593 46.8836V47.5178C37.593 48.3634 37.64 49.209 37.8277 50.0311C37.992 50.8532 38.2266 51.6753 38.5317 52.4739C39.1418 54.0712 39.9866 55.5744 40.9956 56.9603C42.0047 58.3696 43.1311 59.6615 44.3748 60.8829C44.9849 61.4936 45.642 62.0808 46.299 62.6211C46.6276 62.9029 46.9561 63.1848 47.3081 63.4432C47.5662 63.6311 48.1529 64.0539 48.5518 64.3592H48.5987ZM31.7968 67.2953C32.8528 67.3893 33.9088 67.4598 34.9648 67.4598C36.0677 67.4598 37.1706 67.3893 38.2501 67.2719C37.241 66.2149 35.9504 64.1244 35.1056 61.3057C34.12 64.7351 32.6416 66.4967 31.7968 67.2719V67.2953ZM5.81964 48.6218C7.29802 51.7927 9.29266 54.7288 11.6862 57.3126C13.1646 58.8864 14.7838 60.3192 16.5672 61.5876C18.0456 62.6211 19.5944 63.5606 21.237 64.3592C21.589 64.1009 22.1757 63.7016 22.4573 63.4902C22.8092 63.2318 23.1378 62.9499 23.4663 62.668C24.1234 62.1043 24.7804 61.5171 25.3905 60.9299C26.6343 59.7085 27.7841 58.4166 28.7697 57.0073C29.7553 55.5979 30.6235 54.0947 31.2337 52.5209C31.5387 51.7223 31.7734 50.9002 31.9376 50.0781C32.1019 49.256 32.1723 48.4104 32.1723 47.5648V46.9306C32.1723 46.7192 32.1254 46.5078 32.1254 46.2964C32.1019 46.085 32.1019 45.8736 32.055 45.6622L31.9611 45.028C31.7734 44.2059 31.5622 43.3838 31.1633 42.6556C30.7878 41.904 30.295 41.2228 29.7083 40.6356C29.1217 40.0484 28.4177 39.5551 27.6668 39.1793C26.1415 38.4041 24.405 38.0518 22.6685 37.9813C21.8002 37.9579 20.9319 37.9813 20.0637 38.0988C19.6413 38.1693 19.1954 38.2397 18.773 38.3337C18.468 38.4041 18.1629 38.4981 17.9048 38.6155C18.2568 39.7665 18.1395 40.8705 17.5293 41.9744C15.5347 45.6387 8.61213 47.8701 5.79618 48.6452L5.81964 48.6218ZM3.12102 40.1423V40.3302C3.51995 42.2328 4.01274 44.1119 4.69326 45.944C6.00737 44.934 7.36842 43.9945 8.72947 43.0314C9.57425 42.4442 10.4425 41.857 11.2873 41.2698C11.7097 40.9879 12.1555 40.706 12.5779 40.4007L12.9065 40.1893C12.9065 40.1893 13.0707 40.0718 13.1411 40.0014C13.2115 39.9309 13.2585 39.8839 13.2819 39.837C13.2819 39.837 13.2819 39.8839 13.2819 39.9074C13.2819 39.9779 13.3054 40.0718 13.3523 40.1188C13.3758 40.1658 13.4227 40.1893 13.4227 40.1893C13.4227 40.1893 13.3758 40.1893 13.3054 40.1423C13.2115 40.1423 13.1177 40.1423 13.0238 40.1188C12.9769 40.1188 12.9065 40.1188 12.8361 40.1188H12.6483L11.0996 40.1658C10.067 40.1658 9.03453 40.1893 8.00201 40.1893C6.38284 40.1893 4.76366 40.1893 3.12102 40.0953V40.1423ZM2.79249 37.8404C2.83942 38.3572 2.90982 38.8739 3.00369 39.3907C4.6698 39.2263 6.31244 39.0853 7.97855 38.9914C9.01106 38.9209 10.0436 38.8739 11.0996 38.8269L12.6483 38.7565H12.8361C12.8361 38.7565 12.9534 38.7565 13.0473 38.7565C13.1881 38.7565 13.3758 38.7565 13.5401 38.8035C13.7278 38.8504 13.9155 38.8739 14.1502 39.0149C14.2675 39.0853 14.4083 39.1793 14.5022 39.3437C14.5491 39.4377 14.6195 39.5081 14.643 39.6021C14.6664 39.696 14.6899 39.8135 14.6899 39.9074C14.6899 40.0014 14.6899 40.0953 14.6899 40.1658C14.6899 40.2363 14.643 40.3067 14.6195 40.3772C14.5726 40.4946 14.5022 40.6121 14.4552 40.6826C14.3379 40.8705 14.1971 40.9879 14.0798 41.1054C13.9625 41.2228 13.8217 41.3168 13.6809 41.4107L13.3523 41.6221C12.9065 41.904 12.4841 42.1858 12.0382 42.4677C11.1465 43.0079 10.2782 43.5717 9.38652 44.1119C7.93161 45.0045 6.45323 45.8736 4.95139 46.6957C5.11565 47.095 5.27992 47.5178 5.46765 47.9171C8.07241 47.1889 14.948 45.0045 16.8253 41.5986C17.3416 40.6591 17.4355 39.696 17.06 38.7095C15.8632 35.3741 7.22762 36.7834 2.76902 37.8874L2.79249 37.8404ZM2.69863 31.0052C2.60476 31.9917 2.55783 33.0017 2.55783 33.9883C2.55783 34.9983 2.60476 36.0083 2.69863 37.0183C6.2655 36.1492 15.7928 34.2231 17.6936 38.0518C17.9987 37.9109 18.3037 37.7934 18.6088 37.6995C19.0546 37.5585 19.5005 37.4646 19.9464 37.3941C20.4861 37.3002 21.0258 37.2297 21.589 37.1827C20.6738 33.6124 18.6088 31.6394 17.7875 30.9582C17.0131 32.2501 15.1123 32.6964 12.8361 32.6964C9.31612 32.6964 4.95139 31.6159 2.69863 30.9817V31.0052ZM4.95139 21.4218L4.90446 21.5157C4.13007 23.4888 3.54341 25.5558 3.16795 27.6463C4.78713 27.6933 6.38284 27.7402 8.00201 27.8107C9.03453 27.8577 10.067 27.9282 11.0761 27.9516C11.5924 27.9751 12.1086 28.0221 12.5779 28.0221C12.8126 28.0221 13.0473 28.0221 13.1646 27.9751H13.1881C13.1881 27.9751 13.1881 27.9751 13.1411 27.9751C13.1177 27.9751 13.0942 27.9986 13.0473 28.0691C13.0238 28.1161 12.9769 28.163 12.9769 28.2335C12.9769 28.304 12.9769 28.3275 12.9769 28.3979C12.9769 28.4449 12.9769 28.4449 12.9769 28.4684C12.9769 28.4684 12.9299 28.3744 12.8595 28.304C12.8126 28.2335 12.7187 28.1396 12.6483 28.0691C12.5075 27.9282 12.2963 27.7402 12.1086 27.5993L10.9353 26.6128C10.1609 25.9551 9.36306 25.2974 8.58867 24.6162C7.34495 23.5592 6.12471 22.5022 4.90446 21.3983L4.95139 21.4218ZM6.00737 19.0259C5.72578 19.5896 5.49112 20.1534 5.23299 20.7171C6.64097 21.6566 8.02548 22.6432 9.38652 23.6767C10.2078 24.2874 11.0292 24.9216 11.8505 25.5558C12.2494 25.8611 12.6483 26.2135 13.0707 26.5423C13.2819 26.7302 13.4697 26.8712 13.6809 27.0826C13.7982 27.1765 13.8921 27.294 13.9859 27.4114C14.0798 27.5288 14.1971 27.6698 14.291 27.8812C14.3144 27.9516 14.3379 27.9986 14.3614 28.0691C14.3614 28.163 14.4083 28.21 14.4083 28.3275C14.4083 28.5389 14.3614 28.8207 14.1971 29.0086C14.1267 29.1261 14.0563 29.1496 13.9625 29.22C13.8921 29.267 13.8217 29.2905 13.7513 29.3375C13.6809 29.361 13.6339 29.3845 13.587 29.4079C13.5401 29.4079 13.4697 29.4314 13.4462 29.4549C13.0707 29.5254 12.7891 29.5254 12.5075 29.5254C11.9444 29.5254 11.4516 29.4549 10.9353 29.4314C9.90278 29.3375 8.87026 29.2435 7.86121 29.1261C6.24204 28.9382 4.62286 28.7503 3.00369 28.4684C2.90982 29.0321 2.83942 29.6193 2.76902 30.1831C7.13376 31.4045 15.6051 33.1661 17.0835 30.5119C17.4824 29.8073 17.5293 29.0556 17.2477 28.21C16.004 24.4048 8.6356 20.3883 5.96044 19.0259H6.00737ZM9.26919 13.6235C8.16628 15.1033 7.20416 16.6535 6.35937 18.2978C9.10493 19.6836 16.708 23.8411 18.0456 27.9516C18.3037 28.7268 18.3272 29.4784 18.116 30.1831C18.9373 30.7938 21.3778 32.9548 22.4103 37.1592C22.5042 37.1592 22.5981 37.1592 22.6685 37.1592C23.5367 37.1592 24.405 37.2297 25.2732 37.3706C26.1649 31.428 23.654 25.7672 22.95 24.3579C22.6919 24.4753 22.4338 24.5693 22.1287 24.6397C21.941 24.6867 21.7533 24.7102 21.5655 24.7102C17.5059 24.7102 11.2404 16.4187 9.24573 13.6235H9.26919ZM16.0744 6.81174C14.5022 7.98618 13.0473 9.30155 11.7097 10.7109C11.4985 10.9458 11.2873 11.1807 11.0761 11.4155C12.7891 12.8014 14.4552 14.2342 16.0979 15.714L18.6557 17.9924L19.2893 18.5561L19.5944 18.838C19.5944 18.838 19.8056 19.0024 19.876 19.0729C20.0402 19.1903 20.2514 19.2843 20.2984 19.2843C20.2984 19.2843 20.2984 19.2843 20.2749 19.2843C20.2514 19.2843 20.2045 19.3078 20.1576 19.3547C20.0637 19.4487 20.0872 19.4957 20.0872 19.4487C20.0872 19.4252 20.0872 19.3313 20.0637 19.2373L19.9464 18.838L19.6882 18.0394L19.1485 16.4187L18.0691 13.1537C17.3651 11.0397 16.6845 8.92573 16.051 6.78826L16.0744 6.81174ZM17.6232 5.73126C17.2712 5.96615 16.9192 6.20104 16.5907 6.43592H16.5437C17.5059 8.52643 18.3976 10.6404 19.2424 12.7544C19.6648 13.8114 20.0872 14.8919 20.4861 15.9724C20.6973 16.5126 20.885 17.0528 21.0727 17.5931L21.3543 18.4387L21.4951 18.885C21.5421 19.0729 21.589 19.2843 21.5655 19.5192C21.5655 19.6366 21.5421 19.7775 21.4717 19.942C21.4247 20.1064 21.3074 20.2708 21.1666 20.3883C21.0258 20.5292 20.8381 20.6231 20.6738 20.6466C20.5096 20.6936 20.3453 20.6936 20.228 20.6701C19.9698 20.6466 19.7586 20.5762 19.5709 20.4822C19.3832 20.3883 19.2424 20.2943 19.0781 20.2003C18.9373 20.0829 18.82 19.9889 18.7026 19.895L18.3741 19.5896L17.7405 19.0024C16.8957 18.2038 16.0744 17.4052 15.2766 16.6066C13.7278 15.0563 12.2025 13.4826 10.7241 11.8383C10.419 12.1907 10.114 12.5665 9.80892 12.9423C12.5075 16.7475 18.773 24.5458 22.0114 23.8411C22.9031 23.6532 23.4898 23.1599 23.7714 22.3613C25.2497 18.3447 19.1485 8.05665 17.6232 5.70777V5.73126ZM21.237 3.68774C20.228 4.181 19.2424 4.72124 18.3037 5.30846C19.876 7.7513 25.7895 17.5931 24.6866 22.1969C24.5223 22.925 24.1938 23.4888 23.701 23.9116C24.3815 25.2504 27.1036 31.1461 26.118 37.5351C26.7985 37.6995 27.479 37.9344 28.1126 38.2162C28.582 38.4276 29.0278 38.6625 29.4502 38.9679C30.2246 36.9009 32.2896 30.0891 30.9521 19.5661H30.9051C25.766 19.5661 21.9879 6.4829 21.2135 3.68774H21.237ZM29.9195 0.96304C29.4268 1.03351 28.934 1.12746 28.4412 1.2449C26.8689 1.57375 25.3436 2.02003 23.8418 2.58377C24.9682 4.43938 26.0476 6.34197 27.1036 8.24456C27.6668 9.25458 28.2065 10.2881 28.7697 11.2981L29.591 12.8249C29.7318 13.0598 29.8726 13.3181 30.0134 13.5295C30.0838 13.6235 30.1542 13.7409 30.2246 13.8114C30.2481 13.8349 30.2715 13.8584 30.2715 13.8584C30.2715 13.8584 30.2715 13.8584 30.2011 13.8349C30.1777 13.8349 30.1542 13.8349 30.1073 13.8349C30.0603 13.8349 30.0134 13.8349 29.9665 13.8349C29.9195 13.8349 29.8726 13.8584 29.8257 13.8819C29.8257 13.8819 29.7787 13.9054 29.7787 13.9288C29.7787 13.9288 29.7787 13.9288 29.7553 13.9523C29.7318 13.9758 29.7318 13.9993 29.7083 13.9993C29.7083 13.9993 29.7083 13.9993 29.7083 13.9523C29.7318 13.8584 29.7553 13.7409 29.7787 13.6235C29.8022 13.3651 29.8257 13.0832 29.8257 12.8249C29.8257 12.2611 29.8257 11.6739 29.8257 11.0867C29.8257 9.93575 29.8257 8.76131 29.8257 7.61036C29.8257 5.40242 29.8726 3.19447 29.9665 0.986529L29.9195 0.96304ZM31.8907 0.704663C31.4214 0.751641 30.9521 0.798618 30.5062 0.869085C30.6939 3.10052 30.8113 5.33195 30.9286 7.56339C30.9755 8.71434 31.0225 9.88877 31.0694 11.0632C31.0694 11.6504 31.1163 12.2142 31.1163 12.8249C31.1163 13.1302 31.1163 13.4356 31.0694 13.7644C31.0694 13.9288 31.0225 14.0933 30.9755 14.3047C30.9521 14.3986 30.9286 14.5161 30.8347 14.657C30.8347 14.6805 30.7878 14.7275 30.7643 14.7744C30.7409 14.8214 30.7174 14.8449 30.647 14.8919C30.647 14.8919 30.6001 14.9389 30.5766 14.9623C30.5531 14.9623 30.5062 15.0093 30.4827 15.0328C30.4123 15.0798 30.3419 15.1033 30.2481 15.1268C30.1542 15.1268 30.0838 15.1268 29.9899 15.1268C29.9195 15.1268 29.8491 15.1033 29.7787 15.0798C29.6614 15.0328 29.591 14.9858 29.5206 14.9389C29.4033 14.8449 29.3094 14.7744 29.2625 14.704C29.1217 14.563 29.0278 14.4221 28.934 14.2812C28.7462 13.9993 28.6054 13.7409 28.4646 13.4826L27.6668 11.9323C27.1505 10.8988 26.6108 9.86528 26.118 8.80829C25.1559 6.83523 24.1938 4.83869 23.3255 2.81865C22.9735 2.95959 22.5981 3.10052 22.2461 3.26494C22.1522 3.31192 22.0583 3.33541 21.9645 3.38238C23.2316 8.19758 27.0801 19.4017 31.2337 18.7675C31.656 18.6971 32.008 18.4622 32.2896 18.0394C34.5893 14.7275 32.2896 2.58377 31.9142 0.728152L31.8907 0.704663ZM37.0768 0.634197C36.3728 0.587219 35.6688 0.563731 34.9413 0.563731C34.1904 0.563731 33.4395 0.587219 32.6886 0.657686C33.1344 2.88912 35.4107 14.9154 32.9232 18.5092C32.5947 18.9789 32.1723 19.3078 31.703 19.4722C33.1344 30.6763 30.8113 37.629 30.0603 39.5081C30.1777 39.6021 30.295 39.7195 30.4123 39.8135C31.1163 40.4477 31.7264 41.2228 32.1958 42.0684C32.6651 42.8905 32.9702 43.8066 33.2048 44.7226L33.3456 45.4273C33.3926 45.6622 33.416 45.8971 33.4395 46.132C33.463 46.3668 33.5099 46.6017 33.5099 46.8366L33.5568 47.5413C33.6038 48.4808 33.5568 49.4439 33.416 50.3599C33.2752 51.2995 33.064 52.2155 32.759 53.1081C32.1723 54.8933 31.3041 56.561 30.295 58.1112C29.286 59.6615 28.1126 61.1178 26.8689 62.4566C26.2353 63.1378 25.5783 63.772 24.8978 64.4062C24.5458 64.7116 24.2172 65.0169 23.8652 65.3223C23.7948 65.3927 23.7479 65.4397 23.701 65.4632C25.2263 66.0504 26.7985 66.4967 28.3942 66.8491C29.1217 67.0135 29.8726 67.1309 30.6001 67.2249L30.6705 67.1779C30.6705 67.1779 33.416 65.4867 34.6597 59.638L35.0587 57.7824L35.4576 59.638C36.3258 63.6311 38.2501 66.4967 39.2826 67.2014C40.0101 67.1074 40.714 66.9665 41.4415 66.8256C43.0137 66.4967 44.5625 66.0269 46.0409 65.4632C45.994 65.4162 45.947 65.3693 45.8532 65.2988C45.5012 64.9934 45.1492 64.6881 44.8206 64.3827C44.1401 63.7485 43.4831 63.1143 42.8495 62.4332C41.5823 61.0943 40.4324 59.638 39.4234 58.0877C38.4143 56.5375 37.5461 54.8698 36.9594 53.0846C36.6544 52.1921 36.4432 51.276 36.3024 50.3364C36.1616 49.3969 36.1146 48.4573 36.1616 47.5178L36.2085 46.8131C36.2085 46.5782 36.2554 46.3433 36.2789 46.1085C36.3258 45.8736 36.3258 45.6387 36.3728 45.4038L36.5136 44.6991C36.7482 43.7831 37.0533 42.867 37.5226 42.0449C37.992 41.1993 38.5786 40.4477 39.3061 39.79C39.4234 39.6725 39.5407 39.5786 39.6581 39.4846C38.9071 37.6055 36.6074 30.6528 38.0154 19.4487C37.5461 19.2843 37.1237 18.9554 36.7952 18.4857C34.3077 14.9154 36.584 2.84214 37.0298 0.634197H37.0768ZM45.947 2.53679C44.4921 1.99655 42.9903 1.55026 41.465 1.22142C40.9252 1.10397 40.409 1.01002 39.8693 0.916062C39.9631 3.12401 40.0101 5.35544 40.0101 7.56339C40.0101 8.71434 40.0101 9.88877 40.0101 11.0397C40.0101 11.6269 40.0101 12.2142 40.0101 12.7779C40.0101 13.0598 40.0101 13.3416 40.057 13.5765C40.057 13.694 40.1039 13.8114 40.1274 13.9054C40.1274 13.9523 40.1509 13.9758 40.1274 13.9758C40.1274 13.9758 40.1274 13.9758 40.0805 13.9288C40.0805 13.9288 40.0805 13.9288 40.057 13.9054C40.057 13.9054 40.0101 13.8819 40.0101 13.8584C39.9631 13.8584 39.9162 13.8114 39.8693 13.8114C39.8223 13.8114 39.7754 13.8114 39.7285 13.8114C39.6815 13.8114 39.6581 13.8114 39.6346 13.8114C39.5877 13.8114 39.5642 13.8349 39.5642 13.8349C39.5642 13.8349 39.5642 13.8349 39.6111 13.7879C39.6815 13.7174 39.7519 13.6235 39.8223 13.506C39.9631 13.2946 40.1039 13.0598 40.2447 12.8014L41.066 11.2511C41.6292 10.2411 42.169 9.2076 42.7321 8.19758C43.7881 6.29499 44.8676 4.3924 45.994 2.5133L45.947 2.53679ZM47.8478 3.31192L47.6835 3.24145C47.2846 3.07703 46.9091 2.91261 46.5102 2.74819C45.6185 4.76822 44.6798 6.76477 43.6943 8.76131C43.178 9.81831 42.6617 10.8518 42.1455 11.8853L41.3476 13.4356C41.2068 13.694 41.066 13.9523 40.8783 14.2342C40.7844 14.3751 40.6906 14.5161 40.5498 14.657C40.4794 14.7275 40.409 14.8214 40.2917 14.8919C40.2213 14.9389 40.1509 14.9858 40.0335 15.0328C39.9631 15.0328 39.9162 15.0798 39.8223 15.0798C39.7285 15.0798 39.6581 15.0798 39.5642 15.0798C39.4703 15.0798 39.3999 15.0328 39.3295 14.9858C39.3061 14.9858 39.2591 14.9389 39.2357 14.9154C39.2122 14.9154 39.1887 14.8684 39.1653 14.8449C39.1183 14.7979 39.0714 14.7509 39.0479 14.7275C39.0245 14.6805 39.001 14.6335 38.9775 14.61C38.9071 14.4691 38.8837 14.3751 38.8367 14.2577C38.7898 14.0698 38.7663 13.9054 38.7429 13.7174C38.7194 13.3886 38.6959 13.0832 38.6959 12.7779C38.6959 12.1672 38.6959 11.6035 38.7429 11.0162C38.7898 9.8418 38.8133 8.69085 38.8837 7.51641C38.9775 5.28497 39.0949 3.03005 39.3061 0.798618C38.8367 0.728152 38.3909 0.681174 37.9216 0.634197C37.5461 2.46632 35.2464 14.6335 37.5461 17.9454C37.8277 18.3682 38.1797 18.6031 38.6021 18.6736C42.7791 19.3078 46.6276 8.05665 47.8713 3.24145L47.8478 3.31192ZM51.5555 5.28497C50.5934 4.69775 49.6078 4.15751 48.5987 3.66425C47.8713 6.41244 44.0697 19.5896 38.9071 19.5896H38.8602C37.5226 30.1126 39.6111 36.9244 40.362 38.9914C40.7844 38.7095 41.2303 38.4511 41.6996 38.2397C42.3567 37.9579 43.0137 37.723 43.6943 37.5585C42.7087 31.1696 45.4308 25.2739 46.1113 23.9351C45.642 23.5123 45.29 22.9485 45.1257 22.2204C43.9993 17.5696 50.0067 7.68083 51.532 5.28497H51.5555ZM58.7831 11.3686C58.5954 11.1572 58.4076 10.9458 58.1964 10.7344C56.8354 9.27807 55.357 7.96269 53.7378 6.76477C53.1043 8.92573 52.4237 11.0397 51.7197 13.1772L50.6403 16.4421L50.1006 18.0629L49.8424 18.8615L49.7251 19.2373C49.7251 19.2373 49.7016 19.4017 49.7016 19.4487C49.7016 19.4957 49.7016 19.4487 49.6312 19.3547C49.5843 19.3078 49.5374 19.2843 49.5139 19.2843C49.4904 19.2843 49.4904 19.2843 49.4904 19.2843C49.5374 19.2843 49.7486 19.2138 49.9128 19.0729C50.0067 19.0259 50.1006 18.9085 50.1944 18.838L50.4995 18.5561L51.1331 17.9924L53.6909 15.714C55.357 14.2342 57.0231 12.7779 58.7596 11.3921L58.7831 11.3686ZM60.0737 12.9188C59.7922 12.543 59.4871 12.1672 59.182 11.8149C57.7037 13.4826 56.1549 15.0563 54.6061 16.6301C53.7848 17.4522 52.9635 18.2273 52.1421 19.0259L51.5085 19.6131L51.18 19.9185C51.0627 20.0124 50.9454 20.1299 50.8046 20.2238C50.6638 20.3413 50.4995 20.4352 50.3352 20.5057C50.1475 20.5997 49.9598 20.6701 49.6782 20.6936C49.5374 20.6936 49.3966 20.6936 49.2323 20.6701C49.0681 20.6231 48.8803 20.5292 48.7395 20.4117C48.5987 20.2708 48.4814 20.1064 48.4345 19.9655C48.3875 19.801 48.3641 19.6601 48.3406 19.5427C48.3406 19.2843 48.3641 19.0964 48.411 18.9085L48.5518 18.4622L48.8334 17.6166C49.0211 17.0763 49.2088 16.5361 49.42 15.9959C49.819 14.9154 50.2179 13.8349 50.6638 12.7779C51.5085 10.6404 52.4003 8.52643 53.3624 6.45941C53.0104 6.22452 52.6584 5.96615 52.3064 5.73126C50.828 7.98618 44.6564 18.3682 46.1348 22.4083C46.4164 23.2069 47.003 23.6767 47.8947 23.8881C51.1331 24.5927 57.469 16.724 60.1207 12.9423L60.0737 12.9188ZM63.4998 18.2743C62.655 16.6301 61.6695 15.0798 60.5665 13.6C58.6188 16.3247 52.2829 24.7337 48.2233 24.7337C48.0355 24.7337 47.8478 24.7337 47.6601 24.6632C47.355 24.5927 47.0969 24.4988 46.8387 24.3813C46.1582 25.7907 43.6239 31.428 44.5156 37.3941C45.3838 37.2297 46.2521 37.1827 47.1203 37.1827C47.2142 37.1827 47.3081 37.1827 47.3785 37.1827C48.411 33.0017 50.8515 30.8408 51.6728 30.2066C51.4616 29.5019 51.4851 28.7503 51.7432 27.9751C53.1043 23.8176 60.7777 19.6366 63.4764 18.2743H63.4998ZM66.7147 27.6933C66.3158 25.5793 65.7526 23.5358 64.9782 21.5392L64.9078 21.3748C63.6876 22.5022 62.4438 23.5827 61.1767 24.6397C60.4023 25.3209 59.6044 25.9786 58.83 26.6363L57.6567 27.6228C57.469 27.7872 57.2578 27.9516 57.117 28.0926C57.0466 28.163 56.9527 28.257 56.9058 28.3275C56.8354 28.3979 56.8119 28.4684 56.7885 28.4919C56.7885 28.4684 56.7885 28.4684 56.7885 28.4214C56.7885 28.3744 56.7885 28.3275 56.7885 28.257C56.7885 28.1865 56.7415 28.1396 56.6946 28.0926C56.6477 28.0456 56.6477 28.0221 56.6007 27.9986C56.5773 27.9986 56.6007 27.9986 56.5538 27.9986C56.5538 27.9986 56.5538 27.9986 56.5773 27.9986C56.6946 28.0221 56.9527 28.0456 57.1639 28.0456C57.6333 28.0456 58.173 27.9986 58.6658 27.9751C59.6983 27.9282 60.7073 27.8577 61.7399 27.8342C63.359 27.7637 65.0017 27.7168 66.6443 27.6933H66.7147ZM67.0902 30.1596C67.0198 29.5959 66.9494 29.0086 66.8555 28.4449C65.2129 28.7033 63.5702 28.9147 61.9276 29.1026C60.8951 29.22 59.886 29.314 58.8535 29.4079C58.3372 29.4549 57.8444 29.4784 57.2813 29.5019C56.9997 29.5019 56.7181 29.5019 56.3426 29.4314C56.2957 29.4314 56.2487 29.4314 56.1783 29.3845C56.1314 29.3845 56.0845 29.361 56.0141 29.314C55.9437 29.267 55.8967 29.267 55.8029 29.1965C55.7325 29.1261 55.6621 29.0791 55.5682 28.9851C55.404 28.7972 55.3336 28.5154 55.357 28.304C55.357 28.1865 55.3805 28.1396 55.404 28.0456C55.404 27.9751 55.4509 27.9282 55.4743 27.8577C55.5682 27.6463 55.6856 27.5054 55.7794 27.3879C55.8967 27.2705 55.9906 27.153 56.0845 27.0591C56.3191 26.8477 56.5069 26.6832 56.6946 26.5188C57.0935 26.19 57.4925 25.8611 57.9148 25.5323C58.7362 24.8981 59.534 24.2639 60.3788 23.6532C61.7633 22.6197 63.1713 21.6097 64.6027 20.6701C64.3681 20.1064 64.11 19.5427 63.8284 18.9789C61.2001 20.3178 53.7378 24.3813 52.4941 28.1865C52.2125 29.0321 52.2829 29.7838 52.6584 30.4884C54.1368 33.1427 62.702 31.3575 67.0432 30.1361L67.0902 30.1596ZM67.3014 33.9883C67.3014 32.9782 67.2544 31.9682 67.1606 30.9817C64.9547 31.6159 60.5196 32.7199 56.9527 32.7199C54.7 32.7199 52.7757 32.2736 52.0013 30.9817C51.1566 31.6629 49.115 33.6594 48.1998 37.2062C48.7395 37.2532 49.3027 37.3002 49.8424 37.4176C50.2883 37.5116 50.7342 37.6055 51.18 37.723C51.4851 37.8169 51.7901 37.9109 52.0952 38.0753C53.996 34.2231 63.6406 36.1962 67.1606 37.0653C67.2544 36.0553 67.3014 35.0218 67.3014 34.0117V33.9883Z" fill="#DDDE70"/>
</svg>
