<svg width="24" height="24" viewBox="0 0 24 24" fill="none" xmlns="http://www.w3.org/2000/svg">
<path fill-rule="evenodd" clip-rule="evenodd" d="M3.464 3.464C2 4.93 2 7.286 2 12C2 16.714 2 19.071 3.464 20.536C4.93 22 7.286 22 12 22C16.714 22 19.071 22 20.536 20.536C22 19.07 22 16.713 22 12C22 7.286 22 4.929 20.536 3.464C19.07 2 16.713 2 12 2C7.286 2 4.929 2 3.464 3.464ZM13.25 7C13.25 7.414 13.586 7.75 14 7.75H15.19L12.97 9.97C12.8963 10.0387 12.8372 10.1215 12.7962 10.2135C12.7552 10.3055 12.7332 10.4048 12.7314 10.5055C12.7296 10.6062 12.7482 10.7062 12.7859 10.7996C12.8236 10.893 12.8797 10.9778 12.951 11.049C13.0222 11.1203 13.107 11.1764 13.2004 11.2141C13.2938 11.2518 13.3938 11.2704 13.4945 11.2686C13.5952 11.2668 13.6945 11.2448 13.7865 11.2038C13.8785 11.1628 13.9613 11.1037 14.03 11.03L16.25 8.81V10C16.25 10.1989 16.329 10.3897 16.4697 10.5303C16.6103 10.671 16.8011 10.75 17 10.75C17.1989 10.75 17.3897 10.671 17.5303 10.5303C17.671 10.3897 17.75 10.1989 17.75 10V7C17.75 6.80109 17.671 6.61032 17.5303 6.46967C17.3897 6.32902 17.1989 6.25 17 6.25H14C13.8011 6.25 13.6103 6.32902 13.4697 6.46967C13.329 6.61032 13.25 6.80109 13.25 7ZM11.03 14.03C11.1037 13.9613 11.1628 13.8785 11.2038 13.7865C11.2448 13.6945 11.2668 13.5952 11.2686 13.4945C11.2704 13.3938 11.2518 13.2938 11.2141 13.2004C11.1764 13.107 11.1203 13.0222 11.049 12.951C10.9778 12.8797 10.893 12.8236 10.7996 12.7859C10.7062 12.7482 10.6062 12.7296 10.5055 12.7314C10.4048 12.7332 10.3055 12.7552 10.2135 12.7962C10.1215 12.8372 10.0387 12.8963 9.97 12.97L7.75 15.19V14C7.75 13.8011 7.67098 13.6103 7.53033 13.4697C7.38968 13.329 7.19891 13.25 7 13.25C6.80109 13.25 6.61032 13.329 6.46967 13.4697C6.32902 13.6103 6.25 13.8011 6.25 14V17C6.25 17.414 6.586 17.75 7 17.75H10C10.1989 17.75 10.3897 17.671 10.5303 17.5303C10.671 17.3897 10.75 17.1989 10.75 17C10.75 16.8011 10.671 16.6103 10.5303 16.4697C10.3897 16.329 10.1989 16.25 10 16.25H8.81L11.03 14.03Z" fill="#DDDE70"/>
</svg>
