<svg width="24" height="25" viewBox="0 0 24 25" fill="none" xmlns="http://www.w3.org/2000/svg">
<g clip-path="url(#clip0_451_1557)">
<path d="M16.1495 8.5091L16.1195 8.47774C15.1391 7.49285 13.8388 6.89092 12.4535 6.7806C11.0682 6.67028 9.68903 7.05884 8.56505 7.87615C7.44108 8.69345 6.64631 9.88564 6.32422 11.2375C6.00213 12.5894 6.17393 14.0119 6.80862 15.2482L7.06499 15.7527L6.58771 18.0709L6.5809 18.1023L8.88408 17.5568L9.40908 17.8146C10.5014 18.3572 11.7364 18.5438 12.9404 18.3481C14.1443 18.1525 15.2566 17.5843 16.1209 16.7236C17.212 15.6296 17.8254 14.1479 17.8268 12.6027C17.8324 11.0698 17.2291 9.59742 16.1495 8.5091ZM15.915 15.015C15.6327 15.4596 15.1868 16.0036 14.6264 16.1386C13.6445 16.3773 12.1377 16.1468 10.2627 14.4L10.2395 14.3768C8.5909 12.8496 8.16271 11.5786 8.26635 10.5682C8.32362 9.9941 8.8009 9.47728 9.20317 9.1391C9.26668 9.08478 9.34201 9.04607 9.42315 9.02605C9.50428 9.00603 9.58898 9.00527 9.67046 9.02382C9.75195 9.04237 9.82796 9.07972 9.89244 9.13288C9.95692 9.18604 10.0081 9.25355 10.0418 9.33001L10.6486 10.7018C10.6881 10.7902 10.7027 10.8877 10.6909 10.9838C10.6791 11.0799 10.6414 11.171 10.5818 11.2473L10.275 11.6455C10.2106 11.727 10.1717 11.8258 10.1632 11.9294C10.1547 12.033 10.177 12.1368 10.2273 12.2277C10.3991 12.5277 10.8109 12.9709 11.2677 13.3841C11.7804 13.8464 12.3491 14.2705 12.7091 14.4164C12.8057 14.4548 12.9115 14.4638 13.0131 14.4422C13.1148 14.4206 13.2078 14.3694 13.2804 14.295L13.6364 13.9364C13.705 13.8687 13.7904 13.8204 13.8839 13.7964C13.9773 13.7724 14.0754 13.7737 14.1682 13.8L15.6095 14.2091C15.69 14.2321 15.7641 14.2735 15.8257 14.3302C15.8874 14.3868 15.9349 14.4571 15.9646 14.5354C15.9943 14.6136 16.0052 14.6978 15.9966 14.7811C15.988 14.8643 15.9601 14.9445 15.915 15.015Z" fill="#DDDE70"/>
<path d="M23.5909 4.95002C23.4864 3.95574 23.0437 3.02749 22.3367 2.32056C21.6298 1.61363 20.7016 1.17088 19.7073 1.06638C14.5856 0.517261 9.41987 0.517261 4.29818 1.06638C3.30293 1.1697 2.37341 1.61193 1.66538 2.31897C0.957344 3.02601 0.513812 3.9549 0.409094 4.95002C-0.137341 10.0718 -0.137341 15.2373 0.409094 20.3591C0.512415 21.3544 0.954643 22.2839 1.66168 22.9919C2.36872 23.6999 3.29762 24.1435 4.29273 24.2482C9.41442 24.7973 14.5801 24.7973 19.7018 24.2482C20.6971 24.1449 21.6266 23.7027 22.3346 22.9956C23.0427 22.2886 23.4862 21.3597 23.5909 20.3646C24.1377 15.2409 24.1377 10.0737 23.5909 4.95002ZM19.4359 12.8346C19.3957 14.0804 19.0431 15.2961 18.4107 16.3702C17.7782 17.4443 16.886 18.3423 15.8161 18.9817C14.7462 19.6212 13.5328 19.9817 12.2873 20.0301C11.0418 20.0785 9.80403 19.8132 8.68773 19.2587L4.93091 20.1573C4.8835 20.1683 4.83408 20.1673 4.78718 20.1542C4.74029 20.1412 4.69742 20.1165 4.66253 20.0826C4.62764 20.0487 4.60184 20.0065 4.5875 19.96C4.57315 19.9135 4.57073 19.8641 4.58046 19.8164L5.37 15.9832C4.85501 14.972 4.57817 13.8563 4.56067 12.7216C4.54317 11.5869 4.78547 10.4633 5.26902 9.43662C5.75258 8.40997 6.46459 7.50755 7.35056 6.7984C8.23653 6.08925 9.27298 5.59217 10.3806 5.3452C11.4882 5.09822 12.6377 5.1079 13.741 5.37349C14.8443 5.63907 15.8722 6.15353 16.7461 6.87749C17.62 7.60146 18.3168 8.51574 18.783 9.55038C19.2492 10.585 19.4725 11.7126 19.4359 12.8468V12.8346Z" fill="#DDDE70"/>
</g>
<defs>
<clipPath id="clip0_451_1557">
<rect width="24" height="24" fill="white" transform="translate(0 0.657227)"/>
</clipPath>
</defs>
</svg>
