<svg width="93" height="105" viewBox="0 0 93 105" fill="none" xmlns="http://www.w3.org/2000/svg">
	<g filter="url(#filter0_d_131_5730)">
		<path d="M46.5 0.21875C23.4055 0.21875 4.65625 18.968 4.65625 42.0625C4.65625 79.429 45.2608 96.5334 45.2608 96.5334C45.6533 96.6975 46.0745 96.7821 46.5 96.7821C46.9255 96.7821 47.3467 96.6975 47.7392 96.5334C47.7392 96.5334 88.3438 79.429 88.3438 42.0625C88.3438 18.968 69.5945 0.21875 46.5 0.21875ZM46.5 13.0938C30.5125 13.0938 17.5312 26.075 17.5312 42.0625C17.5312 58.05 30.5125 71.0312 46.5 71.0312C62.4875 71.0312 75.4688 58.05 75.4688 42.0625C75.4688 26.075 62.4875 13.0938 46.5 13.0938ZM46.5 19.5312C58.934 19.5312 69.0312 29.6285 69.0312 42.0625C69.0312 54.4965 58.934 64.5938 46.5 64.5938C34.066 64.5938 23.9688 54.4965 23.9688 42.0625C23.9688 29.6285 34.066 19.5312 46.5 19.5312Z" fill="#DDDE70"/>
		<path d="M64.0952 47.8475C63.7694 47.6558 63.3669 47.5217 62.9835 47.4258L62.351 47.2917L61.6994 47.1767C56.7352 46.3717 50.6019 48.5375 49.7969 54.0767L49.6819 54.7092C49.6435 55.1308 49.6052 55.5333 49.5669 55.9742C49.2794 61.9733 53.1702 67.1675 57.3869 71.0392L58.3835 71.9208L59.3419 72.7067C66.491 69.4867 72.2794 63.4492 75.4227 56.3C71.9152 55.1117 63.7502 52.8117 64.0952 47.8475ZM33.601 72.7258L34.5977 71.9208L35.5944 71.0583C39.811 67.1867 43.721 61.9733 43.4335 55.9742C43.4144 55.5525 43.376 55.15 43.3185 54.7092L43.2035 54.0767C42.3985 48.5375 36.2652 46.3717 31.301 47.1767L30.6494 47.2725L30.0169 47.4258C29.576 47.5408 29.0969 47.6942 28.7327 47.9625C28.9435 52.85 20.9702 55.1117 17.4435 56.2808C20.606 63.4492 26.4327 69.5058 33.601 72.7258ZM32.4319 45.8542C31.4927 41.925 29.3269 39.8167 28.541 39.165C27.6019 40.3725 25.9919 40.3917 24.3244 40.4492C21.3919 40.4683 17.4244 39.6058 14.7602 38.8583C14.4919 41.3117 14.4919 43.8225 14.7602 46.2758C17.6927 45.7392 25.9344 43.5542 28.426 46.9083C28.8477 46.64 29.2694 46.5058 29.7102 46.3525L30.4194 46.1608L31.1285 46.0075C31.5694 45.95 31.991 45.8925 32.4319 45.8542ZM51.3685 48.1158C49.2602 43.0558 48.3977 35.4658 49.4902 27.0325C46.5577 24.2342 48.7619 13.1175 49.3177 9.76333C47.3819 9.59083 45.446 9.59083 43.5102 9.76333C43.9319 12.5808 46.2702 23.4292 43.4719 26.9175C44.5835 35.4083 43.7402 43.0367 41.6127 48.135C43.376 49.515 44.526 51.5275 45.0244 53.6933L45.1777 54.4025C45.2735 54.8625 45.331 55.3992 45.3694 55.8783C45.9827 62.5292 41.996 68.5667 37.4727 73.0708L36.591 73.9142C38.4119 74.5275 40.2902 74.9683 42.1877 75.2175C42.5327 74.9875 45.0052 73.1283 46.1552 67.7617L46.5385 65.9408L46.941 67.7617C47.8035 71.71 49.701 74.5275 50.736 75.2175C52.6527 74.9492 54.531 74.5083 56.3519 73.895C51.426 69.2758 46.9794 62.9508 47.6119 55.8783C47.6694 55.1692 47.8035 54.3833 47.9569 53.6933C48.4744 51.5275 49.6244 49.4958 51.3685 48.1158ZM55.3169 46.0842C54.2627 41.0817 56.0644 34.6417 57.8277 31.4025C55.8152 26.86 61.8335 17.6792 63.501 14.7083C62.1402 13.8267 60.7219 13.0408 59.246 12.37C58.4027 15.4175 54.991 26.5725 50.7935 27.2817C49.6819 33.415 50.8127 44.1483 52.4802 47.3683C53.3619 46.8508 54.3394 46.4675 55.336 46.2183L55.3169 46.0842ZM64.2102 38.9925C63.4819 39.5867 61.1819 41.7333 60.2427 45.8158C60.7794 45.8542 61.3352 45.9308 61.8719 46.0267L62.581 46.18L63.271 46.3717C63.6927 46.5058 64.076 46.64 64.4402 46.8508C67.1044 43.5925 75.1735 45.7583 78.1444 46.3142C78.4127 43.8417 78.4127 41.3308 78.1444 38.8583C75.0585 39.5483 66.606 42.0975 64.2102 38.9925ZM58.901 45.7775C59.3035 43.8992 59.9935 42.3083 60.7027 41.12C62.2744 38.59 63.501 37.8617 63.9035 37.5742C64.4594 33.3958 71.7235 29.5242 74.9435 27.78C73.9277 25.71 72.701 23.7358 71.2827 21.8958C69.366 24.5217 63.4627 32.3417 59.7444 32.4375H59.5335L59.3419 32.3992C59.1694 32.3608 58.9969 32.3033 58.8627 32.2458C57.176 35.6958 55.681 41.1392 56.6202 45.95C57.3869 45.835 58.1535 45.7775 58.901 45.7775ZM76.2469 54.345C76.956 52.4858 77.4544 50.55 77.8185 48.595C74.5794 48.7292 71.2827 48.6908 68.0244 48.6142C70.8227 50.4542 73.5635 52.3325 76.2469 54.345ZM77.7802 36.3283V36.3092C77.3969 34.2008 76.8027 32.1117 75.9977 30.1183C73.5444 32.3608 70.8994 34.5075 68.3885 36.6925C71.4935 36.6158 74.656 36.3092 77.7802 36.3283ZM69.9602 20.2667C68.4652 18.5992 66.8169 17.0658 65.0152 15.7242C63.8269 19.7683 62.351 23.985 61.0285 27.9908C63.9419 25.4992 66.9319 22.6625 69.9602 20.2667ZM57.3102 11.565C55.3744 10.8367 53.3619 10.3 51.311 9.99333C51.5219 13.9992 51.4069 18.0433 51.4644 22.0492C53.3427 18.5225 55.2402 14.9958 57.3102 11.565ZM41.5169 10.0125C39.466 10.3383 37.4727 10.875 35.5369 11.6033C37.6069 15.015 39.5427 18.58 41.3827 22.1067C41.3635 18.0625 41.3252 14.0567 41.5169 10.0125ZM27.851 15.7817C26.0494 17.1233 24.401 18.6375 22.9252 20.305C25.9152 22.6433 28.8477 25.5183 31.761 27.9333L31.4352 26.8408C30.2469 23.2375 28.9052 19.4042 27.851 15.7817ZM16.8877 30.1758C16.0827 32.1692 15.5077 34.2392 15.1244 36.3475C18.2485 36.3475 21.3727 36.5775 24.4969 36.7117C21.9285 34.5458 19.3602 32.4183 16.8877 30.1758ZM15.086 48.595C15.431 50.5308 15.9485 52.4475 16.6385 54.3067C19.2835 52.3133 22.0244 50.435 24.8035 48.6142C21.5835 48.6908 18.306 48.71 15.086 48.595ZM35.096 31.2683C36.821 34.2392 38.8144 41.3308 37.6644 46.2183C38.661 46.4675 39.6385 46.8508 40.5202 47.3683C42.1877 44.1292 43.3185 33.4342 42.2069 27.3008C37.8944 26.8408 34.4444 15.4558 33.5819 12.4083C32.1252 13.06 30.7069 13.8458 29.346 14.7275C31.0519 17.7175 36.8594 26.7067 35.096 31.2683ZM36.3802 45.95C37.4919 42.0017 35.441 34.3158 34.0994 32.1883C33.9077 32.265 33.6969 32.3417 33.4669 32.3992L33.2752 32.4375H33.0644C29.346 32.3033 23.5002 24.56 21.5835 21.9342C20.1652 23.755 18.9385 25.7292 17.9419 27.7992C21.2002 29.62 28.5985 33.4533 28.9435 37.785C29.0969 37.8808 30.5727 38.8967 31.991 41.235C32.7002 42.4042 33.371 43.9183 33.7735 45.7967C34.636 45.7775 35.4985 45.8158 36.3802 45.95ZM81.0002 42.5383C81.0002 42.6533 81.0002 42.845 81.0002 42.96C81.0002 43.0175 81.0002 43.1133 81.0002 43.1708C81.0002 43.1708 81.0002 43.2667 81.0002 43.2858C81.0002 43.3433 81.0002 43.4392 81.0002 43.4967C81.0002 43.5733 80.981 43.8417 80.981 43.9183V44.1292V44.225V44.34V44.455V44.5508V44.6658C80.9619 44.915 80.9427 45.1642 80.9235 45.4133V45.5283V45.6433V45.7392L80.8852 46.0458L80.866 46.2567L80.8469 46.3717L80.8277 46.5825L80.7894 46.8892L80.751 47.1958L80.7319 47.2917L80.7127 47.3875L80.6935 47.4833L80.6744 47.5792L80.6552 47.675L80.636 47.7708L80.5785 48.0775L80.5402 48.2883L80.521 48.3842L80.5019 48.48L80.4635 48.6908L80.4444 48.7867L80.4252 48.8825L80.406 48.9783L80.3869 49.0742L80.3677 49.17L80.3485 49.2658L80.3294 49.3617L80.3102 49.4575L80.291 49.5533L80.2719 49.6492L80.2335 49.86L80.2144 49.9558L80.1952 50.0517L80.176 50.1475L80.1569 50.2433L80.1377 50.3392L80.0802 50.55L80.0227 50.7608C79.5435 52.5625 78.911 54.3258 78.1444 56.0317L78.106 56.1275C77.9335 56.5108 77.7419 56.8942 77.5502 57.2583L77.4544 57.45L77.416 57.5458L77.3202 57.7375L77.1669 58.0058L77.0135 58.2742L76.8602 58.5425L76.8027 58.6383L76.7452 58.7342L76.6877 58.83L76.5727 59.0025C76.496 59.1367 76.381 59.3092 76.3044 59.4433L76.1894 59.6158L76.0744 59.7883L75.9019 60.0567L75.7869 60.2292C75.7102 60.325 75.5569 60.555 75.4994 60.67L75.2119 61.1108L75.1544 61.2067C64.0185 77.5367 39.3702 80.6417 24.3435 67.915L24.3052 67.8958L24.2669 67.8767C24.2285 67.8575 24.1902 67.8192 24.171 67.7808L24.1519 67.7617C24.0944 67.7233 24.0369 67.6658 23.9985 67.6275L23.9794 67.6083L23.941 67.57L23.9027 67.5317L23.8644 67.4933L23.8452 67.4742L23.7685 67.4167L23.7302 67.3783L23.6919 67.34L23.6727 67.3208C23.6152 67.2633 23.4427 67.1292 23.3852 67.0717L23.366 67.0525L23.1935 67.225C23.1744 67.225 22.9444 66.995 22.9252 66.995C22.906 66.9758 22.6377 66.7458 22.6185 66.7075C22.5419 66.6308 22.3885 66.4967 22.3119 66.42L21.871 65.9792L21.7944 65.9025L21.7177 65.8258L21.4877 65.5958L21.2769 65.3658L21.2002 65.3083L21.1235 65.2317L20.9894 65.0783L20.9127 65.0017L20.8552 64.925L20.7785 64.8483L20.7019 64.7717L20.5677 64.6183L20.491 64.5417L20.3569 64.3883L20.2802 64.3117L20.2035 64.235L20.146 64.1583L20.0694 64.0817L19.9927 64.005L19.916 63.9283L19.8394 63.8517L19.7627 63.775L19.686 63.6983L19.6669 63.6025L19.6094 63.5258L19.5519 63.4492L19.4752 63.3533L19.3985 63.2767L19.341 63.2L19.2835 63.1233L19.226 63.0467L19.1685 62.97L19.111 62.8933L19.0535 62.8167L18.996 62.74L18.881 62.625L18.8235 62.5483L18.766 62.4717L18.7085 62.395L18.651 62.3183L18.5935 62.2417L18.536 62.165L18.4785 62.0883L18.421 62.0117L18.3252 61.8583L18.2677 61.7817L18.2102 61.705L18.1335 61.6092L18.076 61.5325L18.0185 61.4558L17.9419 61.36L17.8844 61.2833L17.8269 61.2067L17.7694 61.0917L17.7119 61.015L17.6544 60.9192L17.5969 60.8233L17.5394 60.7275L17.4819 60.6317L17.4244 60.5358L17.3669 60.4783L17.3094 60.3825L17.2519 60.2867L17.1944 60.1908L17.1369 60.1333L17.0794 60.0375L17.0219 59.9417L16.9644 59.8458L16.9069 59.75L16.8494 59.6542L16.7919 59.5583L16.7344 59.4625L16.6769 59.3667L16.6194 59.2708L16.5619 59.175L16.5044 59.0792L16.4469 58.9833L16.3894 58.8875L16.3319 58.7917L16.2744 58.6958L16.2169 58.6L16.1594 58.5042L16.121 58.4083L16.0635 58.3125L16.006 58.2167L15.9485 58.1208L15.891 58.025L15.8335 57.9292C15.8144 57.8908 15.7569 57.795 15.7377 57.7375C15.7185 57.6992 15.661 57.6033 15.6419 57.5458L15.6035 57.45L15.546 57.3542C15.5269 57.3158 15.4694 57.22 15.4502 57.1625C15.3735 57.0092 15.2969 56.8367 15.2202 56.6833C15.1819 56.6067 15.1244 56.4917 15.086 56.3958C14.7027 55.5717 14.3577 54.7283 14.0319 53.8658C13.9935 53.7508 13.936 53.5975 13.8977 53.4633C13.8785 53.4058 13.8402 53.31 13.821 53.2717C13.7827 53.1758 13.7444 53.0608 13.7252 52.965L13.6869 52.8692L13.6485 52.7733C13.6102 52.6775 13.5719 52.5625 13.5527 52.4667C13.5335 52.4092 13.4952 52.3133 13.4952 52.275L13.4569 52.1792C13.4377 52.0833 13.3994 51.9683 13.361 51.8725L13.3419 51.815C13.3035 51.6808 13.2652 51.5275 13.2269 51.4125C13.1694 51.2208 13.1119 50.9908 13.0544 50.7992C13.016 50.665 12.9777 50.5117 12.9585 50.3967C12.901 50.205 12.8627 49.975 12.8052 49.7833C12.786 49.7258 12.7669 49.63 12.7669 49.5725C12.5944 48.7867 12.441 47.9817 12.3452 47.1767C12.326 47.0425 12.3069 46.8892 12.2877 46.755C12.2685 46.6592 12.2685 46.525 12.2494 46.4483C12.2302 46.3525 12.2302 46.2183 12.211 46.1417C12.211 46.0842 12.1919 45.9883 12.1919 45.9308L12.1727 45.72L12.1535 45.5092C12.1535 45.4517 12.1344 45.26 12.1344 45.2025V45.1067V45.0108C12.1344 44.915 12.1152 44.7808 12.1152 44.7042V44.6083V44.5125L12.096 44.0908C12.096 43.995 12.0769 43.8608 12.0769 43.765V43.6692V43.5733V43.2667C12.0769 42.9983 12.0577 42.6917 12.0769 42.4233C12.0769 42.2892 12.0769 42.1358 12.0769 42.0017C12.0769 42.0017 12.0769 41.9058 12.0769 41.8867V41.7908V41.695V41.5992V41.5033V41.4075V41.2925V41.1967C12.0769 41.1392 12.0769 41.0433 12.0769 40.9858C12.0769 40.8517 12.096 40.6983 12.096 40.5642V40.4683V40.3725V40.2767V40.1808V40.085C12.096 40.0275 12.1152 39.9317 12.1152 39.8742V39.7783C12.1152 39.7208 12.1344 39.625 12.1344 39.5675V39.4717C12.1344 39.4142 12.1535 39.3183 12.1535 39.2608C12.1535 39.2033 12.1727 39.1075 12.1727 39.05L12.1919 38.9542C12.1919 38.8967 12.211 38.8008 12.211 38.7433L12.2302 38.6475C12.2302 38.59 12.2494 38.4942 12.2494 38.4367L12.2685 38.3408L12.2877 38.245L12.3069 38.1492L12.326 38.0533L12.3452 37.9575L12.3644 37.8617L12.3835 37.7658L12.4027 37.67L12.4219 37.5742L12.441 37.4783L12.4602 37.3825L12.4794 37.2867C12.4794 37.2292 12.4985 37.1333 12.5177 37.0758L12.5369 36.98L12.556 36.8842L12.5752 36.7883L12.5944 36.6925L12.6135 36.5967L12.6327 36.5008L12.6519 36.405L12.671 36.3092L12.6902 36.2133L12.7094 36.1175L12.7285 36.0217L12.7477 35.9258L12.7669 35.83L12.786 35.7342L12.8052 35.6383L12.8244 35.5425C12.8435 35.485 12.8627 35.3892 12.8819 35.3317L12.901 35.2358L12.9202 35.14L12.9394 35.0442L12.9585 34.9483L12.9777 34.8525L12.9969 34.7567L13.016 34.6608L13.0352 34.565L13.0544 34.4692L13.0735 34.3733C13.0927 34.2775 13.131 34.1625 13.1502 34.0667L13.1694 33.9708L13.1885 33.875C13.2077 33.8175 13.2269 33.7217 13.246 33.6642L13.2844 33.5683C13.3035 33.5108 13.3227 33.415 13.3419 33.3575L13.3802 33.2617C13.3994 33.2042 13.4185 33.1083 13.4377 33.07L13.476 32.9742C13.5527 32.7442 13.6294 32.495 13.706 32.265C13.7444 32.1308 13.8019 31.9967 13.8402 31.8625L13.8785 31.7667C13.8977 31.7092 13.936 31.6133 13.9552 31.575L13.9935 31.4792C14.051 31.3258 14.1277 31.1533 14.1852 30.9808L14.2235 30.885C15.4885 27.7225 17.2519 24.7708 19.3985 22.145C19.7435 21.3783 19.9735 21.11 20.2035 20.8417C20.3569 20.6692 20.5294 20.4775 20.7019 20.305L20.7785 20.2283C20.7977 20.19 20.8744 20.1133 20.9127 20.075C21.0085 19.9792 21.1044 19.8642 21.2002 19.7683C21.296 19.6725 21.3919 19.5575 21.4877 19.4617L21.5644 19.385C21.6027 19.3467 21.6794 19.27 21.7177 19.2317L21.7752 19.1742L21.8519 19.0975L21.9285 19.0208L22.0052 18.9442L22.0819 18.8675L22.1585 18.81L22.216 18.7333L22.2927 18.6567L22.3694 18.58L22.446 18.5033C22.5227 18.4267 22.6377 18.3308 22.7144 18.2542C22.8102 18.1583 22.9827 18.0242 23.0785 17.9283C23.1552 17.8517 23.2702 17.7558 23.366 17.6792H23.3852C23.5194 17.545 23.6919 17.4108 23.8452 17.2958L23.8644 17.2767C23.9794 17.1808 24.3819 16.8358 24.516 16.74C24.6502 16.625 24.8419 16.4717 24.9952 16.3567C25.1485 16.2417 25.321 16.1075 25.4744 15.9925C25.8002 15.7433 26.1452 15.5133 26.471 15.2833C26.5285 15.245 26.6052 15.1875 26.6627 15.1492L26.6819 15.13C26.8544 15.015 27.0269 14.9 27.1802 14.8042L27.276 14.7275L27.3335 14.6892L27.3719 14.67C27.6785 14.4783 27.966 14.3058 28.2344 14.1333C28.2919 14.1142 28.3685 14.0567 28.426 14.0183L28.4644 13.9992C32.0294 11.8717 35.9777 10.3958 40.0602 9.64833C40.0794 9.64833 40.1369 9.62916 40.156 9.62916H40.1752H40.2327C40.2519 9.62916 40.271 9.62916 40.2902 9.60999C40.386 9.59083 40.4627 9.57166 40.5585 9.57166H40.5777C40.616 9.57166 40.6735 9.55249 40.731 9.55249H40.7885H40.846H40.9035C41.0185 9.53333 41.1527 9.51416 41.2869 9.49499C41.306 9.49499 41.3252 9.49499 41.3444 9.49499H41.4019H41.421C41.4402 9.49499 41.4977 9.47583 41.5169 9.47583C41.536 9.47583 41.5935 9.45666 41.6319 9.45666L41.7277 9.43749C41.7469 9.43749 41.8044 9.41833 41.8235 9.41833C41.8427 9.41833 41.9002 9.41833 41.9194 9.39916H41.9385C41.9769 9.39916 42.0152 9.37999 42.0535 9.37999H42.111H42.1302C42.1877 9.37999 42.2644 9.36083 42.3219 9.36083H42.341C42.3602 9.36083 42.4177 9.34166 42.4369 9.34166L42.5327 9.32249H42.5902H42.6477H42.7052H42.7435C42.7435 9.32249 42.801 9.32249 42.8202 9.32249H42.8585H42.8777H42.9352H42.9544L43.146 9.30333H43.1652C43.1844 9.30333 43.2419 9.30333 43.261 9.28416C43.3185 9.28416 43.4144 9.26499 43.4719 9.26499C45.4844 9.09249 47.4969 9.09249 49.4902 9.24583H49.5094H49.5477C49.6435 9.24583 49.931 9.28416 50.0269 9.28416H50.0652H50.1227H50.1419C50.161 9.28416 50.2185 9.28416 50.2377 9.28416L50.3335 9.30333L50.4294 9.32249H50.4485C50.4869 9.32249 50.5252 9.34166 50.5635 9.34166H50.621H50.6402H50.6785H50.736H50.7552H50.7935H50.851C50.8702 9.34166 50.9277 9.34166 50.9469 9.36083H50.966H51.0235C51.0619 9.36083 51.1194 9.37999 51.1577 9.37999C51.1769 9.37999 51.2344 9.37999 51.2535 9.39916H51.2727C51.2919 9.39916 51.3494 9.41833 51.3685 9.41833C51.3877 9.41833 51.4452 9.43749 51.4644 9.43749C51.5219 9.43749 51.5794 9.45666 51.6369 9.45666H51.6752C51.7327 9.45666 51.8094 9.47583 51.8669 9.47583H51.886C51.9052 9.47583 51.9627 9.49499 51.9819 9.49499C52.001 9.49499 52.0585 9.51416 52.0777 9.51416H52.0969C52.116 9.51416 52.1735 9.53333 52.1927 9.53333H52.2119C52.2694 9.53333 52.3269 9.55249 52.3844 9.55249H52.4035C52.4802 9.57166 52.576 9.57166 52.6719 9.59083H52.7102H52.7294C52.7485 9.59083 52.806 9.60999 52.8252 9.60999H52.8444L52.9019 9.62916H52.921C52.9785 9.64833 53.0552 9.64833 53.1319 9.66749L53.2277 9.68666L53.3235 9.70583L53.4194 9.72499L53.5152 9.74416L53.611 9.76333L53.7069 9.78249L53.8027 9.80166C53.8602 9.80166 53.956 9.83999 53.9944 9.83999L54.0902 9.85916C54.071 9.87833 54.1669 9.89749 54.2244 9.91666C54.2819 9.93583 54.3777 9.95499 54.416 9.95499L54.5119 9.97416C54.5694 9.99333 54.6652 10.0125 54.7035 10.0125L54.7994 10.0317L54.8952 10.0508L54.991 10.07L55.0869 10.0892L55.1827 10.1083C55.2402 10.1275 55.336 10.1467 55.3744 10.1658L55.4702 10.185C55.5277 10.2042 55.6235 10.2233 55.6619 10.2425L55.7577 10.2617C55.8152 10.2808 55.911 10.3 55.9494 10.3192L56.0452 10.3383L56.141 10.3575L56.2369 10.3767L56.3327 10.3958L56.4285 10.415C56.486 10.4342 56.5819 10.4533 56.6202 10.4725C56.6777 10.4917 56.7735 10.5108 56.8119 10.53C56.9077 10.5492 57.0227 10.5875 57.0994 10.6258L57.1952 10.6642L57.291 10.7025L57.3869 10.7408L57.4827 10.7792L57.5785 10.8175L57.6744 10.8558L57.7702 10.8942L58.0002 10.9708L58.096 11.0092L58.1919 11.0475L58.2877 11.0858L58.3835 11.1242L58.4794 11.1625L58.5752 11.2008L58.671 11.2392L58.7669 11.2775L58.8627 11.3158L58.9585 11.3542L59.0544 11.3925L59.1502 11.4308L59.246 11.4692L59.3419 11.5075L59.476 11.565C61.2202 12.255 62.926 13.0792 64.536 14.0375C64.6319 14.095 64.8044 14.1908 64.881 14.2483C64.9194 14.2675 65.0152 14.325 65.0535 14.3633C65.2069 14.4592 65.4177 14.5933 65.571 14.6892C65.6669 14.7083 65.7627 14.7658 65.801 14.8042C65.8202 14.8233 65.916 14.8808 65.9352 14.9C65.9735 14.9192 66.0694 14.9958 66.1077 15.015C66.2419 15.1108 66.3952 15.2067 66.5102 15.3025C66.5869 15.36 66.7019 15.4367 66.7785 15.4942L66.8169 15.5133C66.836 15.5325 66.9319 15.59 66.951 15.6092C66.9894 15.6283 67.0852 15.705 67.1235 15.7242C67.411 15.935 67.8327 16.2417 68.1202 16.4717C68.1585 16.51 68.2544 16.5675 68.2927 16.6058C68.331 16.6442 68.4077 16.7017 68.4652 16.74C68.5035 16.7783 68.7527 16.97 68.791 17.0083L68.8294 17.0275C68.8485 17.0467 68.9444 17.1233 68.9635 17.1425C69.0019 17.1808 69.0785 17.2383 69.1169 17.2767C69.3085 17.4492 69.5577 17.6408 69.7494 17.8133C69.7877 17.8517 69.8644 17.9092 69.9027 17.9475C69.941 17.9858 70.0177 18.0625 70.056 18.0817C70.0944 18.12 70.171 18.1967 70.2094 18.2158C70.3052 18.3117 70.4202 18.4075 70.516 18.5033L70.5927 18.58L70.6694 18.6567L70.746 18.7333L70.8227 18.81L70.8994 18.8867L70.976 18.9633L71.0527 19.04L71.1294 19.1167L71.206 19.1933L71.2827 19.27L71.3594 19.3467L71.4169 19.3658L71.4935 19.4425L71.5702 19.5192L71.6469 19.5958L71.7235 19.6725L71.8002 19.7492L71.8769 19.8258L71.9535 19.9025L72.0302 19.9792L72.1069 20.0558L72.1835 20.1325L72.2602 20.2092L72.3369 20.2858L72.4135 20.3625L72.4902 20.4392L72.5669 20.5158L72.6435 20.5925L72.7202 20.6692L72.7969 20.7458L72.8735 20.8225L72.9502 20.8992L73.0269 20.9758L73.1035 21.0525L73.1802 21.1292L73.2569 21.2058L73.3144 21.2825L73.3719 21.3592L73.4294 21.4358L73.4869 21.5125C73.5444 21.5892 73.621 21.685 73.6785 21.7617C73.7169 21.8 73.7744 21.8767 73.8127 21.915L73.8702 21.9917C73.9085 22.03 73.966 22.1067 74.0044 22.1642L74.0619 22.2408C74.1002 22.2792 74.1577 22.3558 74.196 22.4133C74.2535 22.49 74.3302 22.5858 74.3877 22.6625C74.4644 22.7583 74.5602 22.8925 74.6369 22.9883C74.9435 23.41 75.2502 23.8508 75.5377 24.2725C75.6527 24.445 75.7677 24.6367 75.8827 24.79L75.9402 24.8858L75.9977 24.9817C76.0169 25.02 76.0744 25.1158 76.1127 25.1542L76.1702 25.25C76.1894 25.2883 76.2469 25.3842 76.2852 25.4225L76.3427 25.5183L76.4002 25.6142C76.4194 25.6525 76.4769 25.7483 76.5152 25.7867L76.5727 25.8825C76.5919 25.9208 76.6494 26.0167 76.6877 26.055L76.7452 26.1508L76.8027 26.2467L76.8602 26.3425L76.9177 26.4383L76.9752 26.5342L77.0327 26.63L77.0902 26.7258L77.1477 26.8217L77.2052 26.9175L77.2627 27.0133L77.3202 27.1092L77.3585 27.205L77.416 27.3008L77.4735 27.3967L77.531 27.4925L77.5694 27.5883L77.6077 27.6842L77.646 27.78L77.6844 27.8758L77.7227 27.9717L77.761 28.0675L77.7994 28.1633L77.8377 28.2592L77.876 28.355L77.9144 28.4508L77.9527 28.5467L77.991 28.6425L78.0294 28.7383L78.0677 28.8342L78.106 28.93L78.1444 29.0258L78.1827 29.1217L78.221 29.2175L78.2594 29.3133L78.2977 29.4092L78.336 29.505L78.3744 29.6008L78.4127 29.6967L78.451 29.7925L78.4894 29.8883L78.5277 29.9842L78.566 30.08L78.6044 30.1758L78.6427 30.2717L78.681 30.3675L78.7194 30.4633L78.7577 30.5592L78.796 30.655L78.8344 30.7508L78.8727 30.8467L78.911 30.9425L78.9494 31.0383L78.9877 31.1342L79.026 31.23L79.0644 31.3258L79.1027 31.4217L79.141 31.5175L79.1794 31.6133L79.2177 31.7092L79.256 31.805L79.2944 31.9008L79.3327 31.9967L79.371 32.0925L79.4094 32.1883L79.4477 32.2842L79.486 32.38L79.5244 32.4758L79.5627 32.5717L79.601 32.6675L79.6394 32.7633L79.6777 32.8592L79.716 32.955L79.7544 33.0508L79.7927 33.1467L79.831 33.2425L79.8694 33.3383L79.8885 33.4342L79.9077 33.53L79.9269 33.6258L79.946 33.7217L79.9652 33.8175L79.9844 33.9133L80.0035 34.0092L80.0227 34.105L80.0419 34.2008L80.061 34.2967L80.0802 34.3925L80.0994 34.4883L80.1185 34.5842L80.1377 34.68L80.1569 34.7758L80.176 34.8717L80.1952 34.9675L80.2144 35.0633L80.2335 35.1592L80.2527 35.255L80.2719 35.3508L80.291 35.4467L80.3102 35.5425L80.3294 35.6383L80.3485 35.7342L80.3677 35.83L80.3869 35.9258L80.406 36.0217L80.4252 36.1175L80.4444 36.2133L80.4635 36.3092L80.4827 36.75L80.5019 36.8458L80.521 36.9417L80.5402 37.0375L80.5594 37.1333L80.5785 37.2292L80.5977 37.325L80.6169 37.4208L80.636 37.5167L80.6552 37.6125L80.6744 37.7083L80.6935 37.8042L80.7127 37.9L80.7319 37.9958L80.751 38.0917L80.7702 38.1875L80.7894 38.2833L80.8085 38.3792L80.8277 38.475L80.8469 38.5708L80.866 38.6667L80.8852 38.7625L80.9044 38.8583V38.9542L80.9235 39.05V39.1458V39.2417V39.3375V39.4333V39.5292V39.625V39.7208V39.8167V39.9125V40.0083V40.1042V40.2192V40.315V40.4108V40.5067V40.6025V40.6983V40.8133V40.9092V41.005V41.1008V41.2158V41.3117V41.4075V41.5033V41.6183V41.7142C80.9235 41.7142 80.9235 41.81 80.9235 41.8292V41.925C81.0002 42.385 81.0002 42.4808 81.0002 42.5383Z" fill="black"/>
	</g>
	<defs>
		<filter id="filter0_d_131_5730" x="0.65625" y="0.21875" width="91.6875" height="104.563" filterUnits="userSpaceOnUse" color-interpolation-filters="sRGB">
			<feFlood flood-opacity="0" result="BackgroundImageFix"/>
			<feColorMatrix in="SourceAlpha" type="matrix" values="0 0 0 0 0 0 0 0 0 0 0 0 0 0 0 0 0 0 127 0" result="hardAlpha"/>
			<feOffset dy="4"/>
			<feGaussianBlur stdDeviation="2"/>
			<feComposite in2="hardAlpha" operator="out"/>
			<feColorMatrix type="matrix" values="0 0 0 0 0 0 0 0 0 0 0 0 0 0 0 0 0 0 0.12 0"/>
			<feBlend mode="normal" in2="BackgroundImageFix" result="effect1_dropShadow_131_5730"/>
			<feBlend mode="normal" in="SourceGraphic" in2="effect1_dropShadow_131_5730" result="shape"/>
		</filter>
	</defs>
</svg>
