<svg width="103" height="108" viewBox="0 0 103 108" fill="none" xmlns="http://www.w3.org/2000/svg">
	<g filter="url(#filter0_d_105_1668)">
	<path d="M51.5 3.21875C28.4055 3.21875 9.65625 21.968 9.65625 45.0625C9.65625 82.429 50.2608 99.5334 50.2608 99.5334C50.6533 99.6975 51.0745 99.7821 51.5 99.7821C51.9255 99.7821 52.3467 99.6975 52.7392 99.5334C52.7392 99.5334 93.3438 82.429 93.3438 45.0625C93.3438 21.968 74.5945 3.21875 51.5 3.21875ZM51.5 16.0938C35.5125 16.0938 22.5312 29.075 22.5312 45.0625C22.5312 61.05 35.5125 74.0312 51.5 74.0312C67.4875 74.0312 80.4688 61.05 80.4688 45.0625C80.4688 29.075 67.4875 16.0938 51.5 16.0938ZM51.5 22.5312C63.934 22.5312 74.0312 32.6285 74.0312 45.0625C74.0312 57.4965 63.934 67.5938 51.5 67.5938C39.066 67.5938 28.9688 57.4965 28.9688 45.0625C28.9688 32.6285 39.066 22.5312 51.5 22.5312Z" fill="#DDDE70"/>
	<path d="M86 45.5259C86 47.7949 85.7687 50.0407 85.3061 52.2634C84.8435 54.4862 84.1264 56.6394 83.2474 58.7C82.3453 60.7607 81.2119 62.7287 79.9165 64.5578C78.6212 66.3869 77.1408 68.0771 75.5216 69.6052C72.2601 72.6614 68.4435 75.0462 64.3493 76.6206C62.2906 77.431 60.1857 78.033 58.0114 78.4266C55.8602 78.8202 53.6628 79.0286 51.4653 79.0286C49.2679 79.0286 47.0935 78.8202 44.9192 78.4266C42.768 78.033 40.64 77.431 38.6044 76.6206C34.5102 75.0231 30.6936 72.6383 27.4552 69.5821C25.8361 68.0539 24.3557 66.3638 23.0603 64.5347C21.765 62.7056 20.6547 60.7607 19.7526 58.6769C18.8505 56.6163 18.1566 54.463 17.6939 52.2403C17.2313 50.0407 17 47.7717 17 45.5259C17 43.2568 17.2313 41.011 17.6939 38.7883C18.1566 36.5887 18.8505 34.4123 19.7526 32.3517C20.6547 30.291 21.7881 28.323 23.0603 26.4939C24.3557 24.6648 25.8361 22.9746 27.4552 21.4465C30.6936 18.3903 34.5102 16.0055 38.6276 14.4079C40.6631 13.5976 42.7912 12.9956 44.9655 12.602C47.0704 12.2084 49.2679 12 51.4653 12C53.6628 12 55.8371 12.2084 58.0114 12.602C60.1626 12.9956 62.2906 13.5976 64.3493 14.4079C68.4435 16.0055 72.2833 18.3903 75.5216 21.4465C77.1408 22.9746 78.6212 24.6648 79.9165 26.4939C81.2119 28.323 82.3453 30.291 83.2474 32.3517C84.1495 34.4123 84.8435 36.5656 85.3061 38.7883C85.7687 41.011 86 43.2568 86 45.5259ZM81.235 57.334C81.9058 55.5281 82.4147 53.6526 82.7617 51.7541V51.5689C81.1656 51.6383 79.5464 51.6615 77.9273 51.6615C76.9095 51.6615 75.8917 51.6615 74.874 51.6383L73.3473 51.592H73.1623C73.1623 51.592 73.0235 51.592 72.9772 51.592C72.8615 51.592 72.7922 51.592 72.6996 51.6152C72.6302 51.6152 72.5608 51.6615 72.584 51.6615C72.584 51.6615 72.6302 51.6615 72.6534 51.592C72.6996 51.5457 72.7228 51.4531 72.7228 51.3836V51.3142C72.7228 51.3142 72.7228 51.3142 72.7228 51.291C72.7228 51.291 72.7228 51.291 72.7228 51.3142C72.7228 51.3605 72.8153 51.4068 72.8615 51.4762C72.9309 51.5457 73.0003 51.592 73.0929 51.6615L73.4167 51.8698C73.8331 52.1477 74.2725 52.4255 74.6889 52.7265C75.5216 53.3053 76.3775 53.861 77.2102 54.463C78.5749 55.4123 79.9165 56.3616 81.235 57.3572V57.334ZM80.4717 59.2094C80.6567 58.8158 80.8186 58.4222 80.9806 58.0286C79.477 57.2182 78.0198 56.3384 76.5625 55.4586C75.6835 54.9261 74.8277 54.3935 73.9487 53.8379C73.5092 53.56 73.0929 53.2822 72.6534 53.0043L72.3295 52.796C72.1908 52.7034 72.0751 52.6107 71.9363 52.495C71.8207 52.3792 71.6819 52.2634 71.5662 52.0782C71.4968 52.0088 71.4506 51.893 71.4043 51.7772C71.3812 51.7078 71.358 51.6383 71.3349 51.5689C71.3349 51.4994 71.3349 51.3836 71.3349 51.3142C71.3349 51.2216 71.358 51.1058 71.3812 51.0132C71.4043 50.9206 71.4737 50.8279 71.5199 50.7585C71.6356 50.6196 71.7744 50.5038 71.8669 50.4343C72.0982 50.2954 72.2833 50.2723 72.4683 50.226C72.6302 50.2028 72.7922 50.1797 72.9541 50.1797C73.0466 50.1797 73.0929 50.1797 73.1623 50.1797H73.3473L74.874 50.2491C75.8917 50.2954 76.9095 50.3417 77.9504 50.4112C79.6158 50.5038 81.2813 50.6427 82.9236 50.8048C82.993 50.2954 83.0624 49.7861 83.1318 49.2767C78.76 48.1885 70.1552 46.753 68.9755 50.0639C68.6286 51.0363 68.698 51.9856 69.2068 52.9117C71.0573 56.2921 77.9273 58.4685 80.4485 59.1631L80.4717 59.2094ZM64.9045 75.4398C66.5468 74.6526 68.0965 73.7265 69.5769 72.6614C71.3118 71.4112 72.9309 69.9988 74.3651 68.4475C76.7244 65.9238 78.6674 63.0297 80.1247 59.9272C77.4184 59.1863 70.5022 56.9636 68.5129 53.3285C67.9346 52.2635 67.819 51.1521 68.1428 50.0176C67.8884 49.9018 67.5877 49.8092 67.287 49.7397C66.8706 49.6471 66.4542 49.5545 66.0148 49.5082C65.1589 49.3925 64.3031 49.3693 63.4472 49.3924C61.7355 49.4619 60.0238 49.8092 58.5203 50.5733C57.7801 50.9437 57.0862 51.4299 56.5079 52.0088C55.9296 52.5876 55.4438 53.259 55.0737 53.9999C54.7037 54.7177 54.4723 55.528 54.2873 56.3384L54.1716 56.9636C54.1254 57.1719 54.1254 57.3803 54.1022 57.5887C54.1022 57.7971 54.056 58.0054 54.056 58.2138V58.839C54.056 59.6725 54.1022 60.506 54.2873 61.3164C54.4492 62.1267 54.6805 62.9371 54.9812 63.7243C55.5826 65.2987 56.4154 66.7805 57.41 68.1466C58.4046 69.5358 59.5149 70.8092 60.7409 72.0131C61.3423 72.6151 61.9899 73.194 62.6376 73.7265C62.9614 74.0043 63.2853 74.2822 63.6323 74.5368C63.8867 74.7221 64.465 75.1388 64.8582 75.4398H64.9045ZM48.3426 78.334C49.3835 78.4266 50.4244 78.496 51.4653 78.496C52.5525 78.496 53.6396 78.4266 54.7037 78.3108C53.709 77.2689 52.4368 75.2083 51.6041 72.4299C50.6326 75.8103 49.1753 77.5468 48.3426 78.3108V78.334ZM22.7365 59.9272C24.1938 63.0528 26.1599 65.947 28.5193 68.4939C29.9765 70.0451 31.5726 71.4575 33.3305 72.7077C34.7878 73.7265 36.3144 74.6526 37.9336 75.4398C38.2806 75.1851 38.8589 74.7915 39.1364 74.5832C39.4834 74.3285 39.8072 74.0506 40.1311 73.7728C40.7787 73.2171 41.4264 72.6383 42.0278 72.0595C43.2538 70.8555 44.3872 69.5821 45.3587 68.1929C46.3302 66.8037 47.1861 65.3219 47.7875 63.7706C48.0882 62.9834 48.3195 62.173 48.4814 61.3627C48.6433 60.5523 48.7127 59.7188 48.7127 58.8853V58.2601C48.7127 58.0518 48.6664 57.8434 48.6664 57.635C48.6433 57.4266 48.6433 57.2182 48.5971 57.0099L48.5045 56.3847C48.3195 55.5744 48.1113 54.764 47.7181 54.0462C47.348 53.3053 46.8622 52.6339 46.2839 52.0551C45.7057 51.4762 45.0117 50.99 44.2715 50.6196C42.768 49.8555 41.0563 49.5082 39.3446 49.4388C38.4888 49.4156 37.6329 49.4388 36.7771 49.5545C36.3607 49.624 35.9212 49.6934 35.5049 49.7861C35.2042 49.8555 34.9035 49.9481 34.649 50.0639C34.996 51.1984 34.8803 52.2866 34.2789 53.3748C32.3128 56.9867 25.4891 59.1863 22.7134 59.9503L22.7365 59.9272ZM20.0764 51.5689V51.7541C20.4697 53.6295 20.9554 55.4817 21.6262 57.2877C22.9216 56.2921 24.2632 55.366 25.6048 54.4167C26.4375 53.8379 27.2933 53.259 28.126 52.6802C28.5424 52.4024 28.9819 52.1245 29.3983 51.8235L29.7221 51.6152C29.7221 51.6152 29.884 51.4994 29.9534 51.4299C30.0228 51.3605 30.0691 51.3142 30.0922 51.2679C30.0922 51.2679 30.0922 51.3142 30.0922 51.3373C30.0922 51.4068 30.1153 51.4994 30.1616 51.5457C30.1847 51.592 30.231 51.6152 30.231 51.6152C30.231 51.6152 30.1847 51.6152 30.1153 51.5689C30.0228 51.5689 29.9303 51.5689 29.8377 51.5457C29.7915 51.5457 29.7221 51.5457 29.6527 51.5457H29.4677L27.941 51.592C26.9232 51.592 25.9055 51.6152 24.8877 51.6152C23.2917 51.6152 21.6956 51.6152 20.0764 51.5225V51.5689ZM19.7526 49.2998C19.7989 49.8092 19.8683 50.3186 19.9608 50.8279C21.6031 50.6659 23.2223 50.527 24.8646 50.4343C25.8823 50.3649 26.9001 50.3186 27.941 50.2723L29.4677 50.2028H29.6527C29.6527 50.2028 29.7684 50.2028 29.8609 50.2028C29.9997 50.2028 30.1847 50.2028 30.3466 50.2491C30.5317 50.2954 30.7167 50.3186 30.948 50.4575C31.0637 50.527 31.2025 50.6196 31.295 50.7816C31.3413 50.8743 31.4107 50.9437 31.4338 51.0363C31.4569 51.1289 31.4801 51.2447 31.4801 51.3373C31.4801 51.4299 31.4801 51.5225 31.4801 51.592C31.4801 51.6615 31.4338 51.7309 31.4107 51.8004C31.3644 51.9162 31.295 52.0319 31.2487 52.1014C31.1331 52.2866 30.9943 52.4024 30.8786 52.5181C30.763 52.6339 30.6242 52.7265 30.4854 52.8191L30.1616 53.0275C29.7221 53.3053 29.3057 53.5832 28.8662 53.861C27.9873 54.3935 27.1314 54.9492 26.2524 55.4817C24.8183 56.3616 23.361 57.2182 21.8807 58.0286C22.0426 58.4222 22.2045 58.839 22.3895 59.2326C24.9571 58.5148 31.7345 56.3616 33.585 53.0043C34.0939 52.0782 34.1864 51.1289 33.8163 50.1565C32.6366 46.8687 24.1244 48.2579 19.7295 49.3461L19.7526 49.2998ZM19.6601 42.5622C19.5675 43.5347 19.5213 44.5303 19.5213 45.5027C19.5213 46.4983 19.5675 47.4939 19.6601 48.4895C23.176 47.6328 32.5672 45.7342 34.4408 49.5082C34.7415 49.3693 35.0422 49.2535 35.3429 49.1609C35.7824 49.022 36.2219 48.9294 36.6614 48.8599C37.1934 48.7673 37.7254 48.6979 38.2806 48.6515C37.3785 45.1323 35.3429 43.1874 34.5334 42.5159C33.77 43.7894 31.8964 44.2293 29.6527 44.2293C26.183 44.2293 21.8807 43.1642 19.6601 42.5391V42.5622ZM21.8807 33.1157L21.8344 33.2083C21.0711 35.1532 20.4928 37.1907 20.1227 39.2513C21.7187 39.2976 23.2917 39.344 24.8877 39.4134C25.9055 39.4597 26.9232 39.5292 27.9179 39.5523C28.4268 39.5755 28.9356 39.6218 29.3983 39.6218C29.6296 39.6218 29.8609 39.6218 29.9765 39.5755H29.9997C29.9997 39.5755 29.9997 39.5755 29.9534 39.5755C29.9303 39.5755 29.9071 39.5986 29.8609 39.6681C29.8377 39.7144 29.7915 39.7607 29.7915 39.8302C29.7915 39.8996 29.7915 39.9228 29.7915 39.9922C29.7915 40.0385 29.7915 40.0385 29.7915 40.0617C29.7915 40.0617 29.7452 39.9691 29.6758 39.8996C29.6296 39.8302 29.537 39.7376 29.4677 39.6681C29.3289 39.5292 29.1207 39.344 28.9356 39.205L27.7791 38.2326C27.0158 37.5843 26.2293 36.936 25.466 36.2646C24.24 35.2227 23.0372 34.1808 21.8344 33.0926L21.8807 33.1157ZM22.9216 30.7541C22.644 31.3098 22.4127 31.8655 22.1582 32.4211C23.5461 33.3473 24.9108 34.3197 26.2524 35.3384C27.062 35.9404 27.8716 36.5656 28.6812 37.1907C29.0744 37.4917 29.4676 37.839 29.884 38.1631C30.0922 38.3484 30.2772 38.4873 30.4854 38.6957C30.6011 38.7883 30.6936 38.904 30.7861 39.0198C30.8786 39.1356 30.9943 39.2745 31.0868 39.4829C31.11 39.5523 31.1331 39.5986 31.1562 39.6681C31.1562 39.7607 31.2025 39.807 31.2025 39.9228C31.2025 40.1312 31.1562 40.409 30.9943 40.5942C30.9249 40.71 30.8555 40.7331 30.763 40.8026C30.6936 40.8489 30.6242 40.8721 30.5548 40.9184C30.4854 40.9415 30.4392 40.9647 30.3929 40.9878C30.3466 40.9878 30.2772 41.011 30.2541 41.0341C29.884 41.1036 29.6064 41.1036 29.3289 41.1036C28.7737 41.1036 28.288 41.0341 27.7791 41.011C26.7613 40.9184 25.7435 40.8258 24.7489 40.71C23.1529 40.5248 21.5568 40.3395 19.9608 40.0617C19.8683 40.6174 19.7989 41.1962 19.7295 41.7519C24.0318 42.9559 32.3822 44.6923 33.8394 42.076C34.2327 41.3814 34.2789 40.6405 34.0013 39.807C32.7754 36.0562 25.5122 32.097 22.8753 30.7541H22.9216ZM26.1368 25.4289C25.0496 26.8875 24.1012 28.4156 23.2685 30.0364C25.9749 31.4024 33.4693 35.5005 34.7878 39.5523C35.0422 40.3164 35.0654 41.0573 34.8572 41.7519C35.6668 42.3539 38.0724 44.484 39.0902 48.6284C39.1827 48.6284 39.2752 48.6284 39.3446 48.6284C40.2005 48.6284 41.0563 48.6979 41.9122 48.8368C42.7911 42.979 40.3161 37.3991 39.6222 36.0099C39.3678 36.1257 39.1133 36.2183 38.8126 36.2877C38.6276 36.334 38.4425 36.3572 38.2575 36.3572C34.2558 36.3572 28.0798 28.1841 26.1136 25.4289H26.1368ZM32.8448 18.7144C31.295 19.8721 29.8609 21.1687 28.5424 22.5579C28.3342 22.7894 28.126 23.0209 27.9179 23.2525C29.6064 24.6185 31.2487 26.0309 32.8679 27.4895L35.3892 29.7354L36.0137 30.291L36.3144 30.5689C36.3144 30.5689 36.5226 30.731 36.592 30.8004C36.7539 30.9162 36.9621 31.0088 37.0084 31.0088C37.0084 31.0088 37.0084 31.0088 36.9852 31.0088C36.9621 31.0088 36.9159 31.0319 36.8696 31.0783C36.7771 31.1709 36.8002 31.2172 36.8002 31.1709C36.8002 31.1477 36.8002 31.0551 36.7771 30.9625L36.6614 30.5689L36.407 29.7817L35.875 28.1841L34.8109 24.9658C34.117 22.882 33.4462 20.7982 32.8217 18.6913L32.8448 18.7144ZM34.3714 17.6494C34.0245 17.8809 33.6775 18.1125 33.3537 18.344H33.3074C34.2558 20.4046 35.1348 22.4884 35.9675 24.5722C36.3838 25.6141 36.8002 26.6791 37.1934 27.7442C37.4016 28.2767 37.5867 28.8092 37.7717 29.3418L38.0493 30.1753L38.1881 30.6152C38.2343 30.8004 38.2806 31.0088 38.2575 31.2403C38.2575 31.3561 38.2343 31.495 38.1649 31.6571C38.1187 31.8192 38.003 31.9812 37.8642 32.097C37.7254 32.2359 37.5404 32.3285 37.3785 32.3517C37.2166 32.398 37.0546 32.398 36.939 32.3748C36.6845 32.3517 36.4764 32.2822 36.2913 32.1896C36.1063 32.097 35.9675 32.0044 35.8056 31.9118C35.6668 31.796 35.5511 31.7034 35.4355 31.6108L35.1116 31.3098L34.4871 30.731C33.6544 29.9437 32.8448 29.1565 32.0583 28.3693C30.5317 26.8412 29.0282 25.2899 27.5709 23.6692C27.2702 24.0165 26.9695 24.387 26.6688 24.7574C29.3289 28.5082 35.5049 36.1951 38.697 35.5005C39.5759 35.3153 40.1542 34.8291 40.4318 34.0419C41.889 30.0827 35.875 19.9416 34.3714 17.6262V17.6494ZM37.9336 15.6351C36.939 16.1213 35.9675 16.6538 35.0422 17.2326C36.592 19.6406 42.4211 29.3418 41.3339 33.8798C41.172 34.5975 40.8481 35.1532 40.3624 35.57C41.0332 36.8897 43.7164 42.7012 42.7449 48.9988C43.4157 49.1609 44.0865 49.3924 44.711 49.6703C45.1737 49.8787 45.6131 50.1102 46.0295 50.4112C46.7928 48.3737 48.8284 41.6593 47.5099 31.2866H47.4636C42.3979 31.2866 38.6738 18.3903 37.9105 15.6351H37.9336ZM46.4921 12.9493C46.0064 13.0187 45.5206 13.1114 45.0349 13.2271C43.4851 13.5513 41.9816 13.9912 40.5012 14.5469C41.6115 16.376 42.6755 18.2514 43.7164 20.1268C44.2715 21.1224 44.8036 22.1411 45.3587 23.1367L46.1683 24.6417C46.3071 24.8732 46.4459 25.1279 46.5846 25.3363C46.654 25.4289 46.7234 25.5446 46.7928 25.6141C46.816 25.6372 46.8391 25.6604 46.8391 25.6604C46.8391 25.6604 46.8391 25.6604 46.7697 25.6372C46.7466 25.6372 46.7234 25.6372 46.6772 25.6372C46.6309 25.6372 46.5846 25.6372 46.5384 25.6372C46.4921 25.6372 46.4459 25.6604 46.3996 25.6836C46.3996 25.6836 46.3533 25.7067 46.3533 25.7299C46.3533 25.7299 46.3533 25.7299 46.3302 25.753C46.3071 25.7762 46.3071 25.7993 46.2839 25.7993C46.2839 25.7993 46.2839 25.7993 46.2839 25.753C46.3071 25.6604 46.3302 25.5446 46.3533 25.4289C46.3765 25.1742 46.3996 24.8963 46.3996 24.6417C46.3996 24.086 46.3996 23.5071 46.3996 22.9283C46.3996 21.7938 46.3996 20.6362 46.3996 19.5016C46.3996 17.3252 46.4459 15.1488 46.5384 12.9724L46.4921 12.9493ZM48.4351 12.6946C47.9725 12.7409 47.5099 12.7872 47.0704 12.8567C47.2554 15.0562 47.3711 17.2558 47.4868 19.4553C47.533 20.5898 47.5793 21.7475 47.6255 22.9052C47.6255 23.484 47.6718 24.0397 47.6718 24.6417C47.6718 24.9426 47.6718 25.2436 47.6255 25.5678C47.6255 25.7299 47.5793 25.8919 47.533 26.1003C47.5099 26.1929 47.4868 26.3087 47.3942 26.4476C47.3942 26.4708 47.348 26.5171 47.3248 26.5634C47.3017 26.6097 47.2786 26.6328 47.2092 26.6791C47.2092 26.6791 47.1629 26.7254 47.1398 26.7486C47.1167 26.7486 47.0704 26.7949 47.0473 26.8181C46.9779 26.8644 46.9085 26.8875 46.816 26.9107C46.7234 26.9107 46.654 26.9107 46.5615 26.9107C46.4921 26.9107 46.4227 26.8875 46.3533 26.8644C46.2377 26.8181 46.1683 26.7718 46.0989 26.7254C45.9832 26.6328 45.8907 26.5634 45.8445 26.4939C45.7057 26.355 45.6131 26.2161 45.5206 26.0772C45.3356 25.7993 45.1968 25.5446 45.058 25.2899L44.2715 23.7618C43.7627 22.7431 43.2306 21.7244 42.7449 20.6825C41.7965 18.7376 40.8481 16.7696 39.9923 14.7784C39.6453 14.9173 39.2752 15.0562 38.9283 15.2183C38.8357 15.2646 38.7432 15.2878 38.6507 15.3341C39.8998 20.0805 43.6933 31.1246 47.7875 30.4994C48.2038 30.43 48.5508 30.1984 48.8284 29.7817C51.0952 26.5171 48.8284 14.5469 48.4583 12.7177L48.4351 12.6946ZM53.5471 12.6251C52.8532 12.5788 52.1592 12.5557 51.4422 12.5557C50.702 12.5557 49.9618 12.5788 49.2216 12.6483C49.6611 14.8478 51.9048 26.7023 49.4529 30.2447C49.1291 30.7078 48.7127 31.0319 48.2501 31.194C49.6611 42.2381 47.3711 49.0915 46.6309 50.9437C46.7466 51.0363 46.8622 51.1521 46.9779 51.2447C47.6718 51.8698 48.2732 52.6339 48.7358 53.4674C49.1985 54.2778 49.4992 55.1808 49.7305 56.0837L49.8693 56.7783C49.9155 57.0099 49.9387 57.2414 49.9618 57.4729C49.9849 57.7045 50.0312 57.936 50.0312 58.1675L50.0774 58.8621C50.1237 59.7882 50.0774 60.7375 49.9387 61.6405C49.7999 62.5666 49.5917 63.4696 49.291 64.3494C48.7127 66.1091 47.8569 67.753 46.8622 69.2811C45.8676 70.8092 44.711 72.2447 43.4851 73.5644C42.8605 74.2359 42.2129 74.861 41.5421 75.4861C41.1951 75.7871 40.8713 76.0881 40.5243 76.3891C40.4549 76.4586 40.4086 76.5049 40.3624 76.528C41.8659 77.1069 43.4157 77.5468 44.9886 77.8941C45.7057 78.0561 46.4459 78.1719 47.1629 78.2645L47.2323 78.2182C47.2323 78.2182 49.9387 76.5512 51.1646 70.786L51.5578 68.9569L51.9511 70.786C52.8069 74.7221 54.7037 77.5468 55.7214 78.2414C56.4385 78.1488 57.1324 78.0098 57.8495 77.8709C59.3993 77.5468 60.9259 77.0837 62.3832 76.528C62.3369 76.4817 62.2906 76.4354 62.1981 76.3659C61.8512 76.065 61.5042 75.764 61.1804 75.463C60.5096 74.8378 59.8619 74.2127 59.2373 73.5413C57.9883 72.2215 56.8548 70.786 55.8602 69.2579C54.8656 67.7298 54.0097 66.0859 53.4314 64.3263C53.1307 63.4465 52.9226 62.5435 52.7838 61.6173C52.645 60.6912 52.5987 59.7651 52.645 58.839L52.6912 58.1444C52.6912 57.9128 52.7375 57.6813 52.7606 57.4498C52.8069 57.2182 52.8069 56.9867 52.8532 56.7552L52.992 56.0606C53.2233 55.1576 53.524 54.2546 53.9866 53.4443C54.4492 52.6107 55.0275 51.8698 55.7446 51.2216C55.8602 51.1058 55.9759 51.0132 56.0915 50.9206C55.3513 49.0683 53.0845 42.215 54.4723 31.1709C54.0097 31.0088 53.5934 30.6846 53.2695 30.2216C50.8176 26.7023 53.0613 14.8015 53.5008 12.6251H53.5471ZM62.2906 14.5005C60.8565 13.968 59.3761 13.5281 57.8726 13.204C57.3406 13.0882 56.8317 12.9956 56.2997 12.903C56.3922 15.0794 56.4385 17.2789 56.4385 19.4553C56.4385 20.5898 56.4385 21.7475 56.4385 22.882C56.4385 23.4608 56.4385 24.0397 56.4385 24.5954C56.4385 24.8732 56.4385 25.151 56.4847 25.3826C56.4847 25.4983 56.531 25.6141 56.5541 25.7067C56.5541 25.753 56.5773 25.7762 56.5541 25.7762C56.5541 25.7762 56.5541 25.7762 56.5079 25.7299C56.5079 25.7299 56.5079 25.7299 56.4847 25.7067C56.4847 25.7067 56.4385 25.6836 56.4385 25.6604C56.3922 25.6604 56.346 25.6141 56.2997 25.6141C56.2534 25.6141 56.2072 25.6141 56.1609 25.6141C56.1147 25.6141 56.0915 25.6141 56.0684 25.6141C56.0221 25.6141 55.999 25.6372 55.999 25.6372C55.999 25.6372 55.999 25.6372 56.0453 25.5909C56.1147 25.5215 56.184 25.4289 56.2534 25.3131C56.3922 25.1047 56.531 24.8732 56.6698 24.6185L57.4794 23.0904C58.0345 22.0948 58.5665 21.0761 59.1217 20.0805C60.1626 18.2051 61.2266 16.3297 62.3369 14.4774L62.2906 14.5005ZM64.1643 15.2646L64.0023 15.1951C63.6091 15.0331 63.239 14.871 62.8458 14.7089C61.9668 16.7001 61.0416 18.6681 60.0701 20.6362C59.5612 21.678 59.0523 22.6968 58.5434 23.7155L57.757 25.2436C57.6182 25.4983 57.4794 25.753 57.2943 26.0309C57.2018 26.1698 57.1093 26.3087 56.9705 26.4476C56.9011 26.5171 56.8317 26.6097 56.7161 26.6791C56.6467 26.7254 56.5773 26.7718 56.4616 26.8181C56.3922 26.8181 56.346 26.8644 56.2534 26.8644C56.1609 26.8644 56.0915 26.8644 55.999 26.8644C55.9065 26.8644 55.8371 26.8181 55.7677 26.7718C55.7446 26.7718 55.6983 26.7254 55.6752 26.7023C55.652 26.7023 55.6289 26.656 55.6058 26.6328C55.5595 26.5865 55.5132 26.5402 55.4901 26.5171C55.467 26.4708 55.4439 26.4245 55.4207 26.4013C55.3513 26.2624 55.3282 26.1698 55.2819 26.054C55.2357 25.8688 55.2125 25.7067 55.1894 25.5215C55.1663 25.1973 55.1431 24.8963 55.1431 24.5954C55.1431 23.9934 55.1431 23.4377 55.1894 22.8589C55.2357 21.7012 55.2588 20.5667 55.3282 19.409C55.4207 17.2095 55.5364 14.9868 55.7446 12.7872C55.2819 12.7177 54.8424 12.6714 54.3798 12.6251C54.0097 14.4311 51.7429 26.4245 54.0097 29.6891C54.2873 30.1058 54.6343 30.3373 55.0506 30.4068C59.1679 31.0319 62.9614 19.9416 64.1874 15.1951L64.1643 15.2646ZM67.819 17.2095C66.8706 16.6306 65.8991 16.0981 64.9045 15.6119C64.1874 18.3208 60.4402 31.3098 55.3513 31.3098H55.3051C53.9866 41.6824 56.0453 48.3969 56.7854 50.4343C57.2018 50.1565 57.6413 49.9018 58.1039 49.6934C58.7516 49.4156 59.3993 49.1841 60.0701 49.022C59.0986 42.7243 61.7818 36.9129 62.4526 35.5931C61.9899 35.1764 61.643 34.6207 61.4811 33.9029C60.3708 29.3186 66.2923 19.5711 67.7958 17.2095H67.819ZM74.9433 23.2062C74.7583 22.9978 74.5732 22.7894 74.3651 22.581C73.0235 21.1455 71.5662 19.8489 69.9702 18.6681C69.3456 20.7982 68.6748 22.882 67.9809 24.989L66.9169 28.2073L66.3848 29.8048L66.1304 30.592L66.0148 30.9625C66.0148 30.9625 65.9916 31.1246 65.9916 31.1709C65.9916 31.2172 65.9916 31.1709 65.9222 31.0783C65.876 31.0319 65.8297 31.0088 65.8066 31.0088C65.7834 31.0088 65.7834 31.0088 65.7834 31.0088C65.8297 31.0088 66.0379 30.9393 66.1998 30.8004C66.2923 30.7541 66.3848 30.6383 66.4774 30.5689L66.7781 30.291L67.4026 29.7354L69.9239 27.4895C71.5662 26.0309 73.2085 24.5954 74.9202 23.2293L74.9433 23.2062ZM76.2156 24.7343C75.938 24.3638 75.6373 23.9934 75.3366 23.6461C73.8793 25.2899 72.3527 26.8412 70.826 28.3925C70.0164 29.2028 69.2068 29.9669 68.3973 30.7541L67.7727 31.3329L67.4489 31.6339C67.3332 31.7265 67.2176 31.8423 67.0788 31.9349C66.94 32.0507 66.7781 32.1433 66.6162 32.2128C66.4311 32.3054 66.2461 32.3748 65.9685 32.398C65.8297 32.398 65.6909 32.398 65.529 32.3748C65.3671 32.3285 65.182 32.2359 65.0432 32.1201C64.9045 31.9812 64.7888 31.8192 64.7425 31.6802C64.6963 31.5182 64.6732 31.3792 64.65 31.2635C64.65 31.0088 64.6731 30.8236 64.7194 30.6383L64.8582 30.1984L65.1358 29.3649C65.3208 28.8324 65.5059 28.2999 65.714 27.7673C66.1073 26.7023 66.5005 25.6372 66.94 24.5954C67.7727 22.4884 68.6517 20.4046 69.6001 18.3671C69.2531 18.1356 68.9061 17.8809 68.5592 17.6494C67.1019 19.8721 61.0184 30.1058 62.4757 34.0882C62.7533 34.8754 63.3315 35.3384 64.2105 35.5468C67.4026 36.2414 73.648 28.4851 76.2618 24.7574L76.2156 24.7343ZM79.5927 30.0132C78.76 28.3925 77.7885 26.8644 76.7013 25.4057C74.7814 28.0915 68.536 36.3803 64.5344 36.3803C64.3493 36.3803 64.1643 36.3803 63.9792 36.3109C63.6785 36.2414 63.4241 36.1488 63.1696 36.033C62.4988 37.4222 60.0007 42.979 60.8797 48.8599C61.7355 48.6979 62.5914 48.6515 63.4472 48.6515C63.5397 48.6515 63.6323 48.6515 63.7016 48.6515C64.7194 44.5303 67.125 42.4002 67.9346 41.775C67.7265 41.0804 67.7496 40.3395 68.004 39.5755C69.3456 35.4774 76.9095 31.3561 79.5696 30.0132H79.5927ZM82.7617 39.2976C82.3684 37.2139 81.8133 35.1995 81.05 33.2315L80.9806 33.0694C79.7777 34.1808 78.5518 35.2458 77.3027 36.2877C76.5394 36.9592 75.7529 37.6075 74.9896 38.2558L73.8331 39.2282C73.648 39.3903 73.4398 39.5523 73.301 39.6912C73.2316 39.7607 73.1391 39.8533 73.0929 39.9228C73.0235 39.9922 73.0003 40.0617 72.9772 40.0849C72.9772 40.0617 72.9772 40.0617 72.9772 40.0154C72.9772 39.9691 72.9772 39.9228 72.9772 39.8533C72.9772 39.7839 72.9309 39.7376 72.8847 39.6912C72.8384 39.6449 72.8384 39.6218 72.7922 39.5986C72.769 39.5986 72.7922 39.5986 72.7459 39.5986C72.7459 39.5986 72.7459 39.5986 72.769 39.5986C72.8847 39.6218 73.1391 39.6449 73.3473 39.6449C73.8099 39.6449 74.3419 39.5986 74.8277 39.5755C75.8455 39.5292 76.8401 39.4597 77.8579 39.4366C79.4539 39.3671 81.0731 39.3208 82.6923 39.2976H82.7617ZM83.1318 41.7287C83.0624 41.1731 82.993 40.5942 82.9004 40.0385C81.2813 40.2932 79.6621 40.5016 78.0429 40.6868C77.0251 40.8026 76.0305 40.8952 75.0127 40.9878C74.5039 41.0341 74.0181 41.0573 73.463 41.0804C73.1854 41.0804 72.9078 41.0804 72.5377 41.011C72.4915 41.011 72.4452 41.011 72.3758 40.9647C72.3295 40.9647 72.2833 40.9415 72.2139 40.8952C72.1445 40.8489 72.0982 40.8489 72.0057 40.7795C71.9363 40.71 71.8669 40.6637 71.7744 40.5711C71.6125 40.3858 71.5431 40.108 71.5662 39.8996C71.5662 39.7839 71.5893 39.7376 71.6125 39.6449C71.6125 39.5755 71.6587 39.5292 71.6819 39.4597C71.7744 39.2513 71.89 39.1124 71.9826 38.9967C72.0982 38.8809 72.1908 38.7651 72.2833 38.6725C72.5146 38.4641 72.6996 38.3021 72.8847 38.14C73.2779 37.8158 73.6711 37.4917 74.0875 37.1675C74.8971 36.5424 75.6835 35.9173 76.5163 35.3153C77.881 34.2965 79.2689 33.301 80.6799 32.3748C80.4485 31.8192 80.1941 31.2635 79.9165 30.7078C77.3258 32.0275 69.9702 36.033 68.7442 39.7839C68.4666 40.6174 68.536 41.3583 68.9061 42.0529C70.3634 44.6692 78.8062 42.9095 83.0855 41.7056L83.1318 41.7287ZM83.3399 45.5027C83.3399 44.5071 83.2937 43.5115 83.2011 42.5391C81.0268 43.1642 76.655 44.2524 73.1391 44.2524C70.9185 44.2524 69.0218 43.8125 68.2585 42.5391C67.4257 43.2105 65.4133 45.1786 64.5112 48.6747C65.0432 48.721 65.5984 48.7673 66.1304 48.8831C66.5699 48.9757 67.0094 49.0683 67.4489 49.1841C67.7496 49.2767 68.0503 49.3693 68.351 49.5314C70.2246 45.7342 79.7315 47.6791 83.2011 48.5358C83.2937 47.5402 83.3399 46.5215 83.3399 45.5259V45.5027Z" fill="#3B4248"/>
	</g>
	<defs>
	<filter id="filter0_d_105_1668" x="5.65625" y="3.21875" width="91.6875" height="104.563" filterUnits="userSpaceOnUse" color-interpolation-filters="sRGB">
	<feFlood flood-opacity="0" result="BackgroundImageFix"/>
	<feColorMatrix in="SourceAlpha" type="matrix" values="0 0 0 0 0 0 0 0 0 0 0 0 0 0 0 0 0 0 127 0" result="hardAlpha"/>
	<feOffset dy="4"/>
	<feGaussianBlur stdDeviation="2"/>
	<feComposite in2="hardAlpha" operator="out"/>
	<feColorMatrix type="matrix" values="0 0 0 0 0 0 0 0 0 0 0 0 0 0 0 0 0 0 0.12 0"/>
	<feBlend mode="normal" in2="BackgroundImageFix" result="effect1_dropShadow_105_1668"/>
	<feBlend mode="normal" in="SourceGraphic" in2="effect1_dropShadow_105_1668" result="shape"/>
	</filter>
	</defs>
</svg>
