<svg width="26" height="26" viewBox="0 0 26 26" fill="none" xmlns="http://www.w3.org/2000/svg">
<path d="M13.0004 0.399994C10.5084 0.399994 8.07227 1.13897 6.00021 2.52348C3.92815 3.90798 2.31318 5.87583 1.35951 8.17818C0.40585 10.4805 0.156328 13.014 0.642502 15.4581C1.12868 17.9023 2.32871 20.1474 4.09085 21.9095C5.85299 23.6717 8.0981 24.8717 10.5423 25.3579C12.9864 25.8441 15.5199 25.5945 17.8222 24.6409C20.1246 23.6872 22.0924 22.0722 23.4769 20.0002C24.8614 17.9281 25.6004 15.492 25.6004 13C25.5967 9.6594 24.268 6.4567 21.9059 4.09454C19.5437 1.73239 16.341 0.403699 13.0004 0.399994ZM16.7902 16.7898C16.5277 17.0523 16.1716 17.1997 15.8004 17.1997C15.4292 17.1997 15.0731 17.0523 14.8106 16.7898L12.0106 13.9898C11.748 13.7273 11.6005 13.3713 11.6004 13V7.39999C11.6004 7.02869 11.7479 6.6726 12.0104 6.41004C12.273 6.14749 12.6291 5.99999 13.0004 5.99999C13.3717 5.99999 13.7278 6.14749 13.9903 6.41004C14.2529 6.6726 14.4004 7.02869 14.4004 7.39999V12.4204L16.7902 14.8102C17.0527 15.0727 17.2001 15.4288 17.2001 15.8C17.2001 16.1712 17.0527 16.5273 16.7902 16.7898Z" fill="#DDDE70"/>
</svg>
