<svg width="24" height="24" viewBox="0 0 24 24" fill="none" xmlns="http://www.w3.org/2000/svg">
<path d="M16.5252 15.0532H19.1565C19.5454 15.0532 19.8566 15.3479 19.8566 15.7143V18.4232C19.8566 18.7897 19.5454 19.0843 19.1565 19.0843H16.5252C16.1378 19.0843 15.8252 18.7897 15.8252 18.4232V15.7143C15.8252 15.3482 16.1378 15.0532 16.5252 15.0532ZM10.7195 15.0532H13.3509C13.7398 15.0532 14.0509 15.3479 14.0509 15.7143V18.4232C14.0509 18.7897 13.7398 19.0843 13.3509 19.0843H10.7195C10.3325 19.0843 10.0195 18.7897 10.0195 18.4232V15.7143C10.0195 15.3482 10.3325 15.0532 10.7195 15.0532ZM4.91388 15.0532H7.54557C7.93259 15.0532 8.24526 15.3479 8.24526 15.7143V18.4232C8.24526 18.7897 7.93259 19.0843 7.54557 19.0843H4.91388C4.52499 19.0843 4.21388 18.7897 4.21388 18.4232V15.7143C4.21388 15.3482 4.52499 15.0532 4.91388 15.0532ZM16.5252 9.24728H19.1565C19.5454 9.24728 19.8566 9.5419 19.8566 9.90839V12.6179C19.8566 12.9837 19.5454 13.279 19.1565 13.279H16.5252C16.1378 13.279 15.8252 12.9837 15.8252 12.6179V9.90839C15.8252 9.54222 16.1378 9.24728 16.5252 9.24728ZM10.7195 9.24728H13.3509C13.7398 9.24728 14.0509 9.5419 14.0509 9.90839V12.6179C14.0509 12.9837 13.7398 13.279 13.3509 13.279H10.7195C10.3325 13.279 10.0195 12.9837 10.0195 12.6179V9.90839C10.0195 9.54222 10.3325 9.24728 10.7195 9.24728ZM5.94273 0.638215C5.80549 0.638011 5.66956 0.664881 5.54272 0.717287C5.41588 0.769693 5.30062 0.846605 5.20355 0.943619C5.10648 1.04063 5.0295 1.15584 4.97701 1.28265C4.92453 1.40946 4.89758 1.54538 4.8977 1.68262V2.45604H2.71339C1.30219 2.45604 0.166016 3.62768 0.166016 5.08275V20.7599C0.166016 22.2147 1.30188 23.386 2.71339 23.386H21.357C22.7682 23.386 23.9041 22.2144 23.9041 20.7599V5.08337C23.9041 3.62799 22.7685 2.45666 21.357 2.45666H19.1727V3.27644C19.1727 4.73368 17.8894 5.07497 17.0758 5.07497V1.68293C17.0758 1.10519 16.6092 0.638527 16.0308 0.638527H14.7313C14.5941 0.638322 14.4581 0.665192 14.3313 0.717598C14.2045 0.770003 14.0892 0.846916 13.9921 0.94393C13.8951 1.04094 13.8181 1.15615 13.7656 1.28296C13.7131 1.40977 13.6862 1.54569 13.6863 1.68293V2.45635H10.3841V3.27613C10.3841 4.73337 9.10082 5.07466 8.28757 5.07466V1.68293C8.28757 1.10519 7.8209 0.638527 7.24255 0.638527H5.94273V0.638215Z" fill="#DDDE70"/>
</svg>
